<svg width="720" height="300" viewBox="0 0 720 300" fill="none" xmlns="http://www.w3.org/2000/svg">
<rect width="720" height="300" fill="white"/>
<path d="M20.7 222H702.1" stroke="white" stroke-width="1.1" stroke-linejoin="round"/>
<path d="M60.6 74.6H31.2V222H60.6V74.6Z" fill="#D3D3D3"/>
<path d="M102.6 108.8H73.2V222H102.6V108.8Z" fill="#D3D3D3"/>
<path d="M144.7 111H115.3V222.1H144.7V111Z" fill="#D3D3D3"/>
<path d="M186.8 115.2H157.4V222H186.8V115.2Z" fill="#D3D3D3"/>
<path d="M228.8 116.3H199.4V222H228.8V116.3Z" fill="#D3D3D3"/>
<path d="M270.9 128H241.5V222H270.9V128Z" fill="#D3D3D3"/>
<path d="M313 132.3H283.6V222H313V132.3Z" fill="#D3D3D3"/>
<path d="M355 146.2H325.6V222H355V146.2Z" fill="#D3D3D3"/>
<path d="M397.1 180.4H367.7V222.1H397.1V180.4Z" fill="#D3D3D3"/>
<path d="M439.1 182.5H409.7V222H439.1V182.5Z" fill="#D3D3D3"/>
<path d="M481.2 188.9H451.8V222H481.2V188.9Z" fill="#D3D3D3"/>
<path d="M523.3 194.3H493.9V222.1H523.3V194.3Z" fill="#D3D3D3"/>
<path d="M565.3 196.4H535.9V222H565.3V196.4Z" fill="#D3D3D3"/>
<path d="M607.4 200.7H578V222.1H607.4V200.7Z" fill="#D3D3D3"/>
<path d="M649.4 207.1H620V222.1H649.4V207.1Z" fill="#D3D3D3"/>
<path d="M691.5 210.3H662.1V222.1H691.5V210.3Z" fill="#D3D3D3"/>
<path d="M40.652 71.028L39.668 71.148C39.668 71.052 39.656 70.84 39.632 70.512C39.616 70.184 39.588 69.78 39.548 69.3C39.508 68.82 39.456 68.3 39.392 67.74C39.336 67.18 39.268 66.616 39.188 66.048C39.116 65.48 39.032 64.948 38.936 64.452C38.84 63.956 38.732 63.536 38.612 63.192L39.56 62.928C39.712 63.392 39.848 63.932 39.968 64.548C40.088 65.156 40.188 65.788 40.268 66.444C40.356 67.1 40.424 67.736 40.472 68.352C40.528 68.96 40.568 69.5 40.592 69.972C40.624 70.444 40.644 70.796 40.652 71.028ZM44.0153 71.028L43.0313 71.148C43.0313 71.052 43.0193 70.84 42.9953 70.512C42.9793 70.184 42.9513 69.78 42.9113 69.3C42.8713 68.82 42.8193 68.3 42.7553 67.74C42.6993 67.18 42.6313 66.616 42.5513 66.048C42.4793 65.48 42.3953 64.948 42.2993 64.452C42.2033 63.956 42.0953 63.536 41.9753 63.192L42.9233 62.928C43.0753 63.392 43.2113 63.932 43.3313 64.548C43.4513 65.156 43.5513 65.788 43.6313 66.444C43.7193 67.1 43.7873 67.736 43.8353 68.352C43.8913 68.96 43.9313 69.5 43.9553 69.972C43.9873 70.444 44.0073 70.796 44.0153 71.028ZM44.2553 65.976C43.9913 65.976 43.7753 65.924 43.6073 65.82C43.4473 65.716 43.3233 65.592 43.2353 65.448C43.1553 65.296 43.1033 65.16 43.0793 65.04L43.0193 63.312L43.3433 64.524C43.3833 64.652 43.4473 64.756 43.5353 64.836C43.6313 64.908 43.7313 64.96 43.8353 64.992C43.9473 65.024 44.0393 65.04 44.1113 65.04C44.2473 65.04 44.3713 64.992 44.4833 64.896C44.6033 64.8 44.7073 64.624 44.7953 64.368C44.8833 64.104 44.9553 63.728 45.0113 63.24L45.8513 63.348C45.8353 63.492 45.8113 63.648 45.7793 63.816C45.7473 63.976 45.7193 64.12 45.6953 64.248C45.6793 64.376 45.6713 64.468 45.6713 64.524C45.6713 64.668 45.7313 64.784 45.8513 64.872C45.9713 64.952 46.1433 64.992 46.3673 64.992C46.5593 64.992 46.7073 64.964 46.8113 64.908C46.9153 64.844 46.9873 64.764 47.0273 64.668C47.0753 64.572 47.0993 64.464 47.0993 64.344C47.0993 64.16 47.0593 63.964 46.9793 63.756C46.9073 63.54 46.8393 63.356 46.7753 63.204L47.5913 62.904C47.7433 63.224 47.8473 63.52 47.9033 63.792C47.9673 64.064 47.9993 64.292 47.9993 64.476C47.9993 64.772 47.9313 65.032 47.7953 65.256C47.6673 65.472 47.4793 65.64 47.2313 65.76C46.9913 65.872 46.7033 65.928 46.3673 65.928C46.0393 65.928 45.7673 65.864 45.5513 65.736C45.3433 65.6 45.2113 65.408 45.1553 65.16H45.4313C45.3353 65.424 45.1793 65.628 44.9633 65.772C44.7473 65.908 44.5113 65.976 44.2553 65.976ZM49.5354 71.22L48.5994 70.836C48.8074 70.372 49.0234 69.876 49.2474 69.348C49.4794 68.812 49.7034 68.264 49.9194 67.704C50.1434 67.144 50.3514 66.592 50.5434 66.048C50.7354 65.496 50.9074 64.976 51.0594 64.488C51.2114 64 51.3274 63.564 51.4074 63.18L52.3434 63L52.1514 63.768C52.0074 64.336 51.8314 64.948 51.6234 65.604C51.4234 66.26 51.2034 66.924 50.9634 67.596C50.7314 68.268 50.4914 68.916 50.2434 69.54C49.9954 70.156 49.7594 70.716 49.5354 71.22ZM54.0954 71.22C53.9034 70.756 53.7114 70.276 53.5194 69.78C53.3354 69.284 53.1514 68.78 52.9674 68.268C52.7914 67.756 52.6194 67.248 52.4514 66.744C52.2914 66.24 52.1394 65.752 51.9954 65.28C51.8594 64.8 51.7394 64.344 51.6354 63.912L51.4554 63.18L52.3434 63C52.4474 63.448 52.5674 63.928 52.7034 64.44C52.8474 64.952 53.0074 65.48 53.1834 66.024C53.3594 66.568 53.5434 67.116 53.7354 67.668C53.9354 68.22 54.1434 68.764 54.3594 69.3C54.5834 69.836 54.8074 70.352 55.0314 70.848L54.0954 71.22Z" fill="black"/>
<path d="M82.652 105.228L81.668 105.348C81.668 105.252 81.656 105.04 81.632 104.712C81.616 104.384 81.588 103.98 81.548 103.5C81.508 103.02 81.456 102.5 81.392 101.94C81.336 101.38 81.268 100.816 81.188 100.248C81.116 99.68 81.032 99.148 80.936 98.652C80.84 98.156 80.732 97.736 80.612 97.392L81.56 97.128C81.712 97.592 81.848 98.132 81.968 98.748C82.088 99.356 82.188 99.988 82.268 100.644C82.356 101.3 82.424 101.936 82.472 102.552C82.528 103.16 82.568 103.7 82.592 104.172C82.624 104.644 82.644 104.996 82.652 105.228ZM85.2353 102.804C85.0993 102.652 84.9753 102.52 84.8633 102.408C84.7513 102.296 84.6393 102.188 84.5273 102.084C84.4153 101.98 84.2873 101.868 84.1433 101.748L85.0073 100.836C85.2233 100.996 85.4273 101.172 85.6193 101.364C85.8113 101.556 85.9793 101.744 86.1233 101.928L85.2353 102.804ZM91.2943 105.36C91.2623 105.128 91.2023 104.78 91.1143 104.316C91.0343 103.844 90.9463 103.288 90.8503 102.648C90.7623 102 90.6863 101.3 90.6223 100.548C90.5583 99.788 90.5263 99.004 90.5263 98.196L90.9103 97.62L91.3903 97.296C91.3903 97.752 91.4103 98.28 91.4503 98.88C91.4983 99.48 91.5543 100.1 91.6183 100.74C91.6903 101.38 91.7623 102 91.8343 102.6C91.9143 103.2 91.9863 103.732 92.0503 104.196C92.1223 104.66 92.1823 105.008 92.2303 105.24L91.2943 105.36ZM91.3183 98.256C91.0063 98.328 90.6623 98.384 90.2863 98.424C89.9183 98.456 89.5423 98.468 89.1583 98.46C88.7743 98.444 88.4063 98.404 88.0543 98.34C87.7103 98.268 87.4063 98.164 87.1423 98.028L87.3223 97.116C87.6183 97.236 87.9583 97.324 88.3423 97.38C88.7343 97.436 89.1263 97.464 89.5183 97.464C89.9183 97.464 90.2823 97.448 90.6103 97.416C90.9463 97.384 91.2063 97.344 91.3903 97.296L91.3183 98.256Z" fill="black"/>
<path d="M124.752 107.328L123.768 107.448C123.768 107.352 123.756 107.14 123.732 106.812C123.716 106.484 123.688 106.08 123.648 105.6C123.608 105.12 123.556 104.6 123.492 104.04C123.436 103.48 123.368 102.916 123.288 102.348C123.216 101.78 123.132 101.248 123.036 100.752C122.94 100.256 122.832 99.836 122.712 99.492L123.66 99.228C123.812 99.692 123.948 100.232 124.068 100.848C124.188 101.456 124.288 102.088 124.368 102.744C124.456 103.4 124.524 104.036 124.572 104.652C124.628 105.26 124.668 105.8 124.692 106.272C124.724 106.744 124.744 107.096 124.752 107.328ZM127.335 104.904C127.199 104.752 127.075 104.62 126.963 104.508C126.851 104.396 126.739 104.288 126.627 104.184C126.515 104.08 126.387 103.968 126.243 103.848L127.107 102.936C127.323 103.096 127.527 103.272 127.719 103.464C127.911 103.656 128.079 103.844 128.223 104.028L127.335 104.904ZM134.342 106.116L134.618 106.956C134.282 107.124 133.938 107.252 133.586 107.34C133.234 107.42 132.802 107.46 132.29 107.46C131.738 107.46 131.266 107.388 130.874 107.244C130.482 107.092 130.182 106.88 129.974 106.608C129.766 106.336 129.662 106.012 129.662 105.636C129.662 105.364 129.746 105.04 129.914 104.664C130.09 104.28 130.442 103.888 130.97 103.488C130.73 103.432 130.51 103.344 130.31 103.224C130.118 103.096 129.962 102.94 129.842 102.756C129.73 102.564 129.674 102.344 129.674 102.096C129.674 101.84 129.73 101.58 129.842 101.316C129.962 101.044 130.142 100.78 130.382 100.524C130.63 100.26 130.938 100.016 131.306 99.792C131.674 99.568 132.11 99.376 132.614 99.216L132.95 100.14C132.558 100.276 132.214 100.42 131.918 100.572C131.63 100.724 131.39 100.884 131.198 101.052C131.014 101.212 130.874 101.376 130.778 101.544C130.69 101.712 130.646 101.876 130.646 102.036C130.646 102.148 130.694 102.252 130.79 102.348C130.886 102.444 131.026 102.52 131.21 102.576C131.394 102.632 131.61 102.664 131.858 102.672C132.106 102.672 132.378 102.64 132.674 102.576L132.758 103.44C132.182 103.736 131.742 104.016 131.438 104.28C131.142 104.544 130.938 104.784 130.826 105C130.714 105.216 130.658 105.412 130.658 105.588C130.658 105.82 130.734 106.004 130.886 106.14C131.038 106.276 131.246 106.376 131.51 106.44C131.774 106.496 132.07 106.524 132.398 106.524C132.67 106.524 132.93 106.504 133.178 106.464C133.426 106.416 133.65 106.36 133.85 106.296C134.05 106.232 134.214 106.172 134.342 106.116Z" fill="black"/>
<path d="M166.852 111.628L165.868 111.748C165.868 111.652 165.856 111.44 165.832 111.112C165.816 110.784 165.788 110.38 165.748 109.9C165.708 109.42 165.656 108.9 165.592 108.34C165.536 107.78 165.468 107.216 165.388 106.648C165.316 106.08 165.232 105.548 165.136 105.052C165.04 104.556 164.932 104.136 164.812 103.792L165.76 103.528C165.912 103.992 166.048 104.532 166.168 105.148C166.288 105.756 166.388 106.388 166.468 107.044C166.556 107.7 166.624 108.336 166.672 108.952C166.728 109.56 166.768 110.1 166.792 110.572C166.824 111.044 166.844 111.396 166.852 111.628ZM169.435 109.204C169.299 109.052 169.175 108.92 169.063 108.808C168.951 108.696 168.839 108.588 168.727 108.484C168.615 108.38 168.487 108.268 168.343 108.148L169.207 107.236C169.423 107.396 169.627 107.572 169.819 107.764C170.011 107.956 170.179 108.144 170.323 108.328L169.435 109.204ZM172.974 109.204C172.838 109.052 172.714 108.92 172.602 108.808C172.49 108.696 172.378 108.588 172.266 108.484C172.154 108.38 172.026 108.268 171.882 108.148L172.746 107.236C172.962 107.396 173.166 107.572 173.358 107.764C173.55 107.956 173.718 108.144 173.862 108.328L172.974 109.204Z" fill="black"/>
<path d="M213.736 112.76C213.64 112.376 213.56 111.992 213.496 111.608C213.432 111.216 213.376 110.832 213.328 110.456C213.28 110.08 213.24 109.712 213.208 109.352C213.176 108.992 213.144 108.64 213.112 108.296C213.08 107.944 213.044 107.624 213.004 107.336C212.964 107.048 212.912 106.792 212.848 106.568C212.792 106.336 212.72 106.144 212.632 105.992C212.544 105.832 212.436 105.712 212.308 105.632C212.188 105.552 212.04 105.512 211.864 105.512C211.648 105.512 211.456 105.58 211.288 105.716C211.128 105.844 211 106.008 210.904 106.208C210.816 106.408 210.772 106.604 210.772 106.796C210.772 107.044 210.832 107.252 210.952 107.42C211.072 107.588 211.236 107.712 211.444 107.792C211.66 107.872 211.904 107.912 212.176 107.912C212.392 107.912 212.62 107.888 212.86 107.84C213.108 107.792 213.356 107.72 213.604 107.624L213.712 108.476C213.416 108.604 213.124 108.7 212.836 108.764C212.556 108.82 212.284 108.848 212.02 108.848C211.604 108.848 211.232 108.776 210.904 108.632C210.584 108.488 210.328 108.272 210.136 107.984C209.952 107.696 209.86 107.348 209.86 106.94C209.86 106.54 209.948 106.16 210.124 105.8C210.308 105.432 210.56 105.132 210.88 104.9C211.2 104.668 211.572 104.552 211.996 104.552C212.404 104.552 212.732 104.648 212.98 104.84C213.236 105.032 213.432 105.296 213.568 105.632C213.704 105.96 213.804 106.336 213.868 106.76C213.94 107.184 213.996 107.628 214.036 108.092C214.068 108.46 214.1 108.84 214.132 109.232C214.164 109.624 214.2 110.02 214.24 110.42C214.288 110.812 214.34 111.192 214.396 111.56C214.46 111.928 214.54 112.276 214.636 112.604L213.736 112.76ZM219.631 112.76C219.535 112.376 219.455 111.992 219.391 111.608C219.327 111.216 219.271 110.832 219.223 110.456C219.175 110.08 219.135 109.712 219.103 109.352C219.071 108.992 219.039 108.64 219.007 108.296C218.975 107.944 218.939 107.624 218.899 107.336C218.859 107.048 218.807 106.792 218.743 106.568C218.687 106.336 218.615 106.144 218.527 105.992C218.439 105.832 218.331 105.712 218.203 105.632C218.083 105.552 217.935 105.512 217.759 105.512C217.543 105.512 217.351 105.58 217.183 105.716C217.023 105.844 216.895 106.008 216.799 106.208C216.711 106.408 216.667 106.604 216.667 106.796C216.667 107.044 216.727 107.252 216.847 107.42C216.967 107.588 217.131 107.712 217.339 107.792C217.555 107.872 217.799 107.912 218.071 107.912C218.287 107.912 218.515 107.888 218.755 107.84C219.003 107.792 219.251 107.72 219.499 107.624L219.607 108.476C219.311 108.604 219.019 108.7 218.731 108.764C218.451 108.82 218.179 108.848 217.915 108.848C217.499 108.848 217.127 108.776 216.799 108.632C216.479 108.488 216.223 108.272 216.031 107.984C215.847 107.696 215.755 107.348 215.755 106.94C215.755 106.54 215.843 106.16 216.019 105.8C216.203 105.432 216.455 105.132 216.775 104.9C217.095 104.668 217.467 104.552 217.891 104.552C218.299 104.552 218.627 104.648 218.875 104.84C219.131 105.032 219.327 105.296 219.463 105.632C219.599 105.96 219.699 106.336 219.763 106.76C219.835 107.184 219.891 107.628 219.931 108.092C219.963 108.46 219.995 108.84 220.027 109.232C220.059 109.624 220.095 110.02 220.135 110.42C220.183 110.812 220.235 111.192 220.291 111.56C220.355 111.928 220.435 112.276 220.531 112.604L219.631 112.76Z" fill="black"/>
<path d="M252.776 124.62L251.84 124.236C252.048 123.772 252.264 123.276 252.488 122.748C252.72 122.212 252.944 121.664 253.16 121.104C253.384 120.544 253.592 119.992 253.784 119.448C253.976 118.896 254.148 118.376 254.3 117.888C254.452 117.4 254.568 116.964 254.648 116.58L255.584 116.4L255.392 117.168C255.248 117.736 255.072 118.348 254.864 119.004C254.664 119.66 254.444 120.324 254.204 120.996C253.972 121.668 253.732 122.316 253.484 122.94C253.236 123.556 253 124.116 252.776 124.62ZM257.336 124.62C257.144 124.156 256.952 123.676 256.76 123.18C256.576 122.684 256.392 122.18 256.208 121.668C256.032 121.156 255.86 120.648 255.692 120.144C255.532 119.64 255.38 119.152 255.236 118.68C255.1 118.2 254.98 117.744 254.876 117.312L254.696 116.58L255.584 116.4C255.688 116.848 255.808 117.328 255.944 117.84C256.088 118.352 256.248 118.88 256.424 119.424C256.6 119.968 256.784 120.516 256.976 121.068C257.176 121.62 257.384 122.164 257.6 122.7C257.824 123.236 258.048 123.752 258.272 124.248L257.336 124.62ZM259.69 124.62L258.754 124.236C258.962 123.772 259.178 123.276 259.402 122.748C259.634 122.212 259.858 121.664 260.074 121.104C260.298 120.544 260.506 119.992 260.698 119.448C260.89 118.896 261.062 118.376 261.214 117.888C261.366 117.4 261.482 116.964 261.562 116.58L262.498 116.4L262.306 117.168C262.162 117.736 261.986 118.348 261.778 119.004C261.578 119.66 261.358 120.324 261.118 120.996C260.886 121.668 260.646 122.316 260.398 122.94C260.15 123.556 259.914 124.116 259.69 124.62ZM264.25 124.62C264.058 124.156 263.866 123.676 263.674 123.18C263.49 122.684 263.306 122.18 263.122 121.668C262.946 121.156 262.774 120.648 262.606 120.144C262.446 119.64 262.294 119.152 262.15 118.68C262.014 118.2 261.894 117.744 261.79 117.312L261.61 116.58L262.498 116.4C262.602 116.848 262.722 117.328 262.858 117.84C263.002 118.352 263.162 118.88 263.338 119.424C263.514 119.968 263.698 120.516 263.89 121.068C264.09 121.62 264.298 122.164 264.514 122.7C264.738 123.236 264.962 123.752 265.186 124.248L264.25 124.62Z" fill="black"/>
<path d="M292.876 128.92L291.94 128.536C292.148 128.072 292.364 127.576 292.588 127.048C292.82 126.512 293.044 125.964 293.26 125.404C293.484 124.844 293.692 124.292 293.884 123.748C294.076 123.196 294.248 122.676 294.4 122.188C294.552 121.7 294.668 121.264 294.748 120.88L295.684 120.7L295.492 121.468C295.348 122.036 295.172 122.648 294.964 123.304C294.764 123.96 294.544 124.624 294.304 125.296C294.072 125.968 293.832 126.616 293.584 127.24C293.336 127.856 293.1 128.416 292.876 128.92ZM297.436 128.92C297.244 128.456 297.052 127.976 296.86 127.48C296.676 126.984 296.492 126.48 296.308 125.968C296.132 125.456 295.96 124.948 295.792 124.444C295.632 123.94 295.48 123.452 295.336 122.98C295.2 122.5 295.08 122.044 294.976 121.612L294.796 120.88L295.684 120.7C295.788 121.148 295.908 121.628 296.044 122.14C296.188 122.652 296.348 123.18 296.524 123.724C296.7 124.268 296.884 124.816 297.076 125.368C297.276 125.92 297.484 126.464 297.7 127C297.924 127.536 298.148 128.052 298.372 128.548L297.436 128.92ZM303.954 127.516L304.23 128.356C303.894 128.524 303.55 128.652 303.198 128.74C302.846 128.82 302.414 128.86 301.902 128.86C301.35 128.86 300.878 128.788 300.486 128.644C300.094 128.492 299.794 128.28 299.586 128.008C299.378 127.736 299.274 127.412 299.274 127.036C299.274 126.764 299.358 126.44 299.526 126.064C299.702 125.68 300.054 125.288 300.582 124.888C300.342 124.832 300.122 124.744 299.922 124.624C299.73 124.496 299.574 124.34 299.454 124.156C299.342 123.964 299.286 123.744 299.286 123.496C299.286 123.24 299.342 122.98 299.454 122.716C299.574 122.444 299.754 122.18 299.994 121.924C300.242 121.66 300.55 121.416 300.918 121.192C301.286 120.968 301.722 120.776 302.226 120.616L302.562 121.54C302.17 121.676 301.826 121.82 301.53 121.972C301.242 122.124 301.002 122.284 300.81 122.452C300.626 122.612 300.486 122.776 300.39 122.944C300.302 123.112 300.258 123.276 300.258 123.436C300.258 123.548 300.306 123.652 300.402 123.748C300.498 123.844 300.638 123.92 300.822 123.976C301.006 124.032 301.222 124.064 301.47 124.072C301.718 124.072 301.99 124.04 302.286 123.976L302.37 124.84C301.794 125.136 301.354 125.416 301.05 125.68C300.754 125.944 300.55 126.184 300.438 126.4C300.326 126.616 300.27 126.812 300.27 126.988C300.27 127.22 300.346 127.404 300.498 127.54C300.65 127.676 300.858 127.776 301.122 127.84C301.386 127.896 301.682 127.924 302.01 127.924C302.282 127.924 302.542 127.904 302.79 127.864C303.038 127.816 303.262 127.76 303.462 127.696C303.662 127.632 303.826 127.572 303.954 127.516Z" fill="black"/>
<path d="M336.652 142.672L336.88 141.724C337.016 141.156 337.184 140.552 337.384 139.912C337.584 139.264 337.8 138.612 338.032 137.956C338.272 137.292 338.512 136.652 338.752 136.036C339 135.42 339.236 134.864 339.46 134.368L340.396 134.752C340.188 135.216 339.968 135.72 339.736 136.264C339.512 136.8 339.288 137.352 339.064 137.92C338.848 138.488 338.644 139.052 338.452 139.612C338.26 140.164 338.088 140.688 337.936 141.184C337.784 141.68 337.668 142.12 337.588 142.504L336.652 142.672ZM336.652 142.672C336.532 142.224 336.396 141.74 336.244 141.22C336.092 140.692 335.924 140.148 335.74 139.588C335.564 139.02 335.376 138.452 335.176 137.884C334.976 137.308 334.772 136.752 334.564 136.216C334.356 135.672 334.148 135.16 333.94 134.68L334.9 134.308C335.132 134.868 335.364 135.452 335.596 136.06C335.836 136.66 336.064 137.268 336.28 137.884C336.504 138.492 336.704 139.096 336.88 139.696C337.056 140.288 337.2 140.856 337.312 141.4L337.54 142.504L336.652 142.672ZM343.29 142.528L342.306 142.648C342.306 142.552 342.294 142.34 342.27 142.012C342.254 141.684 342.226 141.28 342.186 140.8C342.146 140.32 342.094 139.8 342.03 139.24C341.974 138.68 341.906 138.116 341.826 137.548C341.754 136.98 341.67 136.448 341.574 135.952C341.478 135.456 341.37 135.036 341.25 134.692L342.198 134.428C342.35 134.892 342.486 135.432 342.606 136.048C342.726 136.656 342.826 137.288 342.906 137.944C342.994 138.6 343.062 139.236 343.11 139.852C343.166 140.46 343.206 141 343.23 141.472C343.262 141.944 343.282 142.296 343.29 142.528Z" fill="black"/>
<path d="M378.452 176.728L377.468 176.848C377.468 176.752 377.456 176.54 377.432 176.212C377.416 175.884 377.388 175.48 377.348 175C377.308 174.52 377.256 174 377.192 173.44C377.136 172.88 377.068 172.316 376.988 171.748C376.916 171.18 376.832 170.648 376.736 170.152C376.64 169.656 376.532 169.236 376.412 168.892L377.36 168.628C377.512 169.092 377.648 169.632 377.768 170.248C377.888 170.856 377.988 171.488 378.068 172.144C378.156 172.8 378.224 173.436 378.272 174.052C378.328 174.66 378.368 175.2 378.392 175.672C378.424 176.144 378.444 176.496 378.452 176.728ZM378.692 171.676C378.428 171.676 378.212 171.624 378.044 171.52C377.884 171.416 377.76 171.292 377.672 171.148C377.592 170.996 377.54 170.86 377.516 170.74L377.456 169.012L377.78 170.224C377.82 170.352 377.884 170.456 377.972 170.536C378.068 170.608 378.168 170.66 378.272 170.692C378.384 170.724 378.476 170.74 378.548 170.74C378.684 170.74 378.808 170.692 378.92 170.596C379.04 170.5 379.144 170.324 379.232 170.068C379.32 169.804 379.392 169.428 379.448 168.94L380.288 169.048C380.272 169.192 380.248 169.348 380.216 169.516C380.184 169.676 380.156 169.82 380.132 169.948C380.116 170.076 380.108 170.168 380.108 170.224C380.108 170.368 380.168 170.484 380.288 170.572C380.408 170.652 380.58 170.692 380.804 170.692C380.996 170.692 381.144 170.664 381.248 170.608C381.352 170.544 381.424 170.464 381.464 170.368C381.512 170.272 381.536 170.164 381.536 170.044C381.536 169.86 381.496 169.664 381.416 169.456C381.344 169.24 381.276 169.056 381.212 168.904L382.028 168.604C382.18 168.924 382.284 169.22 382.34 169.492C382.404 169.764 382.436 169.992 382.436 170.176C382.436 170.472 382.368 170.732 382.232 170.956C382.104 171.172 381.916 171.34 381.668 171.46C381.428 171.572 381.14 171.628 380.804 171.628C380.476 171.628 380.204 171.564 379.988 171.436C379.78 171.3 379.648 171.108 379.592 170.86H379.868C379.772 171.124 379.616 171.328 379.4 171.472C379.184 171.608 378.948 171.676 378.692 171.676ZM387.032 176.86C386.936 176.476 386.856 176.092 386.792 175.708C386.728 175.316 386.672 174.932 386.624 174.556C386.576 174.18 386.536 173.812 386.504 173.452C386.472 173.092 386.44 172.74 386.408 172.396C386.376 172.044 386.34 171.724 386.3 171.436C386.26 171.148 386.208 170.892 386.144 170.668C386.088 170.436 386.016 170.244 385.928 170.092C385.84 169.932 385.732 169.812 385.604 169.732C385.484 169.652 385.336 169.612 385.16 169.612C384.944 169.612 384.752 169.68 384.584 169.816C384.424 169.944 384.296 170.108 384.2 170.308C384.112 170.508 384.068 170.704 384.068 170.896C384.068 171.144 384.128 171.352 384.248 171.52C384.368 171.688 384.532 171.812 384.74 171.892C384.956 171.972 385.2 172.012 385.472 172.012C385.688 172.012 385.916 171.988 386.156 171.94C386.404 171.892 386.652 171.82 386.9 171.724L387.008 172.576C386.712 172.704 386.42 172.8 386.132 172.864C385.852 172.92 385.58 172.948 385.316 172.948C384.9 172.948 384.528 172.876 384.2 172.732C383.88 172.588 383.624 172.372 383.432 172.084C383.248 171.796 383.156 171.448 383.156 171.04C383.156 170.64 383.244 170.26 383.42 169.9C383.604 169.532 383.856 169.232 384.176 169C384.496 168.768 384.868 168.652 385.292 168.652C385.7 168.652 386.028 168.748 386.276 168.94C386.532 169.132 386.728 169.396 386.864 169.732C387 170.06 387.1 170.436 387.164 170.86C387.236 171.284 387.292 171.728 387.332 172.192C387.364 172.56 387.396 172.94 387.428 173.332C387.46 173.724 387.496 174.12 387.536 174.52C387.584 174.912 387.636 175.292 387.692 175.66C387.756 176.028 387.836 176.376 387.932 176.704L387.032 176.86Z" fill="black"/>
<path d="M420.452 178.928L419.468 179.048C419.468 178.952 419.456 178.74 419.432 178.412C419.416 178.084 419.388 177.68 419.348 177.2C419.308 176.72 419.256 176.2 419.192 175.64C419.136 175.08 419.068 174.516 418.988 173.948C418.916 173.38 418.832 172.848 418.736 172.352C418.64 171.856 418.532 171.436 418.412 171.092L419.36 170.828C419.512 171.292 419.648 171.832 419.768 172.448C419.888 173.056 419.988 173.688 420.068 174.344C420.156 175 420.224 175.636 420.272 176.252C420.328 176.86 420.368 177.4 420.392 177.872C420.424 178.344 420.444 178.696 420.452 178.928ZM420.692 173.876C420.428 173.876 420.212 173.824 420.044 173.72C419.884 173.616 419.76 173.492 419.672 173.348C419.592 173.196 419.54 173.06 419.516 172.94L419.456 171.212L419.78 172.424C419.82 172.552 419.884 172.656 419.972 172.736C420.068 172.808 420.168 172.86 420.272 172.892C420.384 172.924 420.476 172.94 420.548 172.94C420.684 172.94 420.808 172.892 420.92 172.796C421.04 172.7 421.144 172.524 421.232 172.268C421.32 172.004 421.392 171.628 421.448 171.14L422.288 171.248C422.272 171.392 422.248 171.548 422.216 171.716C422.184 171.876 422.156 172.02 422.132 172.148C422.116 172.276 422.108 172.368 422.108 172.424C422.108 172.568 422.168 172.684 422.288 172.772C422.408 172.852 422.58 172.892 422.804 172.892C422.996 172.892 423.144 172.864 423.248 172.808C423.352 172.744 423.424 172.664 423.464 172.568C423.512 172.472 423.536 172.364 423.536 172.244C423.536 172.06 423.496 171.864 423.416 171.656C423.344 171.44 423.276 171.256 423.212 171.104L424.028 170.804C424.18 171.124 424.284 171.42 424.34 171.692C424.404 171.964 424.436 172.192 424.436 172.376C424.436 172.672 424.368 172.932 424.232 173.156C424.104 173.372 423.916 173.54 423.668 173.66C423.428 173.772 423.14 173.828 422.804 173.828C422.476 173.828 422.204 173.764 421.988 173.636C421.78 173.5 421.648 173.308 421.592 173.06H421.868C421.772 173.324 421.616 173.528 421.4 173.672C421.184 173.808 420.948 173.876 420.692 173.876ZM427.748 179.072L427.976 178.124C428.112 177.556 428.28 176.952 428.48 176.312C428.68 175.664 428.896 175.012 429.128 174.356C429.368 173.692 429.608 173.052 429.848 172.436C430.096 171.82 430.332 171.264 430.556 170.768L431.492 171.152C431.284 171.616 431.064 172.12 430.832 172.664C430.608 173.2 430.384 173.752 430.16 174.32C429.944 174.888 429.74 175.452 429.548 176.012C429.356 176.564 429.184 177.088 429.032 177.584C428.88 178.08 428.764 178.52 428.684 178.904L427.748 179.072ZM427.748 179.072C427.628 178.624 427.492 178.14 427.34 177.62C427.188 177.092 427.02 176.548 426.836 175.988C426.66 175.42 426.472 174.852 426.272 174.284C426.072 173.708 425.868 173.152 425.66 172.616C425.452 172.072 425.244 171.56 425.036 171.08L425.996 170.708C426.228 171.268 426.46 171.852 426.692 172.46C426.932 173.06 427.16 173.668 427.376 174.284C427.6 174.892 427.8 175.496 427.976 176.096C428.152 176.688 428.296 177.256 428.408 177.8L428.636 178.904L427.748 179.072Z" fill="black"/>
<path d="M462.552 185.328L461.568 185.448C461.568 185.352 461.556 185.14 461.532 184.812C461.516 184.484 461.488 184.08 461.448 183.6C461.408 183.12 461.356 182.6 461.292 182.04C461.236 181.48 461.168 180.916 461.088 180.348C461.016 179.78 460.932 179.248 460.836 178.752C460.74 178.256 460.632 177.836 460.512 177.492L461.46 177.228C461.612 177.692 461.748 178.232 461.868 178.848C461.988 179.456 462.088 180.088 462.168 180.744C462.256 181.4 462.324 182.036 462.372 182.652C462.428 183.26 462.468 183.8 462.492 184.272C462.524 184.744 462.544 185.096 462.552 185.328ZM462.792 180.276C462.528 180.276 462.312 180.224 462.144 180.12C461.984 180.016 461.86 179.892 461.772 179.748C461.692 179.596 461.64 179.46 461.616 179.34L461.556 177.612L461.88 178.824C461.92 178.952 461.984 179.056 462.072 179.136C462.168 179.208 462.268 179.26 462.372 179.292C462.484 179.324 462.576 179.34 462.648 179.34C462.784 179.34 462.908 179.292 463.02 179.196C463.14 179.1 463.244 178.924 463.332 178.668C463.42 178.404 463.492 178.028 463.548 177.54L464.388 177.648C464.372 177.792 464.348 177.948 464.316 178.116C464.284 178.276 464.256 178.42 464.232 178.548C464.216 178.676 464.208 178.768 464.208 178.824C464.208 178.968 464.268 179.084 464.388 179.172C464.508 179.252 464.68 179.292 464.904 179.292C465.096 179.292 465.244 179.264 465.348 179.208C465.452 179.144 465.524 179.064 465.564 178.968C465.612 178.872 465.636 178.764 465.636 178.644C465.636 178.46 465.596 178.264 465.516 178.056C465.444 177.84 465.376 177.656 465.312 177.504L466.128 177.204C466.28 177.524 466.384 177.82 466.44 178.092C466.504 178.364 466.536 178.592 466.536 178.776C466.536 179.072 466.468 179.332 466.332 179.556C466.204 179.772 466.016 179.94 465.768 180.06C465.528 180.172 465.24 180.228 464.904 180.228C464.576 180.228 464.304 180.164 464.088 180.036C463.88 179.9 463.748 179.708 463.692 179.46H463.968C463.872 179.724 463.716 179.928 463.5 180.072C463.284 180.208 463.048 180.276 462.792 180.276ZM469.548 185.328L468.564 185.448C468.564 185.352 468.552 185.14 468.528 184.812C468.512 184.484 468.484 184.08 468.444 183.6C468.404 183.12 468.352 182.6 468.288 182.04C468.232 181.48 468.164 180.916 468.084 180.348C468.012 179.78 467.928 179.248 467.832 178.752C467.736 178.256 467.628 177.836 467.508 177.492L468.456 177.228C468.608 177.692 468.744 178.232 468.864 178.848C468.984 179.456 469.084 180.088 469.164 180.744C469.252 181.4 469.32 182.036 469.368 182.652C469.424 183.26 469.464 183.8 469.488 184.272C469.52 184.744 469.54 185.096 469.548 185.328Z" fill="black"/>
<path d="M504.652 190.628L503.668 190.748C503.668 190.652 503.656 190.44 503.632 190.112C503.616 189.784 503.588 189.38 503.548 188.9C503.508 188.42 503.456 187.9 503.392 187.34C503.336 186.78 503.268 186.216 503.188 185.648C503.116 185.08 503.032 184.548 502.936 184.052C502.84 183.556 502.732 183.136 502.612 182.792L503.56 182.528C503.712 182.992 503.848 183.532 503.968 184.148C504.088 184.756 504.188 185.388 504.268 186.044C504.356 186.7 504.424 187.336 504.472 187.952C504.528 188.56 504.568 189.1 504.592 189.572C504.624 190.044 504.644 190.396 504.652 190.628ZM505.144 185.048C504.744 185.048 504.388 185 504.076 184.904C503.772 184.808 503.52 184.688 503.32 184.544V183.548C503.544 183.724 503.816 183.856 504.136 183.944C504.456 184.032 504.776 184.076 505.096 184.076C505.296 184.076 505.48 184.064 505.648 184.04C505.824 184.016 505.98 183.956 506.116 183.86C506.252 183.764 506.364 183.616 506.452 183.416C506.548 183.208 506.62 182.924 506.668 182.564L507.484 182.72C507.444 183.328 507.316 183.8 507.1 184.136C506.884 184.472 506.608 184.708 506.272 184.844C505.936 184.98 505.56 185.048 505.144 185.048ZM512.24 190.76C512.208 190.528 512.148 190.18 512.06 189.716C511.98 189.244 511.892 188.688 511.796 188.048C511.708 187.4 511.632 186.7 511.568 185.948C511.504 185.188 511.472 184.404 511.472 183.596L511.856 183.02L512.336 182.696C512.336 183.152 512.356 183.68 512.396 184.28C512.444 184.88 512.5 185.5 512.564 186.14C512.636 186.78 512.708 187.4 512.78 188C512.86 188.6 512.932 189.132 512.996 189.596C513.068 190.06 513.128 190.408 513.176 190.64L512.24 190.76ZM512.264 183.656C511.952 183.728 511.608 183.784 511.232 183.824C510.864 183.856 510.488 183.868 510.104 183.86C509.72 183.844 509.352 183.804 509 183.74C508.656 183.668 508.352 183.564 508.088 183.428L508.268 182.516C508.564 182.636 508.904 182.724 509.288 182.78C509.68 182.836 510.072 182.864 510.464 182.864C510.864 182.864 511.228 182.848 511.556 182.816C511.892 182.784 512.152 182.744 512.336 182.696L512.264 183.656Z" fill="black"/>
<path d="M546.652 192.728L545.668 192.848C545.668 192.752 545.656 192.54 545.632 192.212C545.616 191.884 545.588 191.48 545.548 191C545.508 190.52 545.456 190 545.392 189.44C545.336 188.88 545.268 188.316 545.188 187.748C545.116 187.18 545.032 186.648 544.936 186.152C544.84 185.656 544.732 185.236 544.612 184.892L545.56 184.628C545.712 185.092 545.848 185.632 545.968 186.248C546.088 186.856 546.188 187.488 546.268 188.144C546.356 188.8 546.424 189.436 546.472 190.052C546.528 190.66 546.568 191.2 546.592 191.672C546.624 192.144 546.644 192.496 546.652 192.728ZM547.144 187.148C546.744 187.148 546.388 187.1 546.076 187.004C545.772 186.908 545.52 186.788 545.32 186.644V185.648C545.544 185.824 545.816 185.956 546.136 186.044C546.456 186.132 546.776 186.176 547.096 186.176C547.296 186.176 547.48 186.164 547.648 186.14C547.824 186.116 547.98 186.056 548.116 185.96C548.252 185.864 548.364 185.716 548.452 185.516C548.548 185.308 548.62 185.024 548.668 184.664L549.484 184.82C549.444 185.428 549.316 185.9 549.1 186.236C548.884 186.572 548.608 186.808 548.272 186.944C547.936 187.08 547.56 187.148 547.144 187.148ZM555.188 191.516L555.464 192.356C555.128 192.524 554.784 192.652 554.432 192.74C554.08 192.82 553.648 192.86 553.136 192.86C552.584 192.86 552.112 192.788 551.72 192.644C551.328 192.492 551.028 192.28 550.82 192.008C550.612 191.736 550.508 191.412 550.508 191.036C550.508 190.764 550.592 190.44 550.76 190.064C550.936 189.68 551.288 189.288 551.816 188.888C551.576 188.832 551.356 188.744 551.156 188.624C550.964 188.496 550.808 188.34 550.688 188.156C550.576 187.964 550.52 187.744 550.52 187.496C550.52 187.24 550.576 186.98 550.688 186.716C550.808 186.444 550.988 186.18 551.228 185.924C551.476 185.66 551.784 185.416 552.152 185.192C552.52 184.968 552.956 184.776 553.46 184.616L553.796 185.54C553.404 185.676 553.06 185.82 552.764 185.972C552.476 186.124 552.236 186.284 552.044 186.452C551.86 186.612 551.72 186.776 551.624 186.944C551.536 187.112 551.492 187.276 551.492 187.436C551.492 187.548 551.54 187.652 551.636 187.748C551.732 187.844 551.872 187.92 552.056 187.976C552.24 188.032 552.456 188.064 552.704 188.072C552.952 188.072 553.224 188.04 553.52 187.976L553.604 188.84C553.028 189.136 552.588 189.416 552.284 189.68C551.988 189.944 551.784 190.184 551.672 190.4C551.56 190.616 551.504 190.812 551.504 190.988C551.504 191.22 551.58 191.404 551.732 191.54C551.884 191.676 552.092 191.776 552.356 191.84C552.62 191.896 552.916 191.924 553.244 191.924C553.516 191.924 553.776 191.904 554.024 191.864C554.272 191.816 554.496 191.76 554.696 191.696C554.896 191.632 555.06 191.572 555.188 191.516Z" fill="black"/>
<path d="M588.752 197.028L587.768 197.148C587.768 197.052 587.756 196.84 587.732 196.512C587.716 196.184 587.688 195.78 587.648 195.3C587.608 194.82 587.556 194.3 587.492 193.74C587.436 193.18 587.368 192.616 587.288 192.048C587.216 191.48 587.132 190.948 587.036 190.452C586.94 189.956 586.832 189.536 586.712 189.192L587.66 188.928C587.812 189.392 587.948 189.932 588.068 190.548C588.188 191.156 588.288 191.788 588.368 192.444C588.456 193.1 588.524 193.736 588.572 194.352C588.628 194.96 588.668 195.5 588.692 195.972C588.724 196.444 588.744 196.796 588.752 197.028ZM589.244 191.448C588.844 191.448 588.488 191.4 588.176 191.304C587.872 191.208 587.62 191.088 587.42 190.944V189.948C587.644 190.124 587.916 190.256 588.236 190.344C588.556 190.432 588.876 190.476 589.196 190.476C589.396 190.476 589.58 190.464 589.748 190.44C589.924 190.416 590.08 190.356 590.216 190.26C590.352 190.164 590.464 190.016 590.552 189.816C590.648 189.608 590.72 189.324 590.768 188.964L591.584 189.12C591.544 189.728 591.416 190.2 591.2 190.536C590.984 190.872 590.708 191.108 590.372 191.244C590.036 191.38 589.66 191.448 589.244 191.448ZM593.82 194.604C593.684 194.452 593.56 194.32 593.448 194.208C593.336 194.096 593.224 193.988 593.112 193.884C593 193.78 592.872 193.668 592.728 193.548L593.592 192.636C593.808 192.796 594.012 192.972 594.204 193.164C594.396 193.356 594.564 193.544 594.708 193.728L593.82 194.604Z" fill="black"/>
<path d="M630.852 203.428L629.868 203.548C629.868 203.452 629.856 203.24 629.832 202.912C629.816 202.584 629.788 202.18 629.748 201.7C629.708 201.22 629.656 200.7 629.592 200.14C629.536 199.58 629.468 199.016 629.388 198.448C629.316 197.88 629.232 197.348 629.136 196.852C629.04 196.356 628.932 195.936 628.812 195.592L629.76 195.328C629.912 195.792 630.048 196.332 630.168 196.948C630.288 197.556 630.388 198.188 630.468 198.844C630.556 199.5 630.624 200.136 630.672 200.752C630.728 201.36 630.768 201.9 630.792 202.372C630.824 202.844 630.844 203.196 630.852 203.428ZM636.903 202.216L637.179 203.056C636.843 203.224 636.499 203.352 636.147 203.44C635.795 203.52 635.363 203.56 634.851 203.56C634.299 203.56 633.827 203.488 633.435 203.344C633.043 203.192 632.743 202.98 632.535 202.708C632.327 202.436 632.223 202.112 632.223 201.736C632.223 201.464 632.307 201.14 632.475 200.764C632.651 200.38 633.003 199.988 633.531 199.588C633.291 199.532 633.071 199.444 632.871 199.324C632.679 199.196 632.523 199.04 632.403 198.856C632.291 198.664 632.235 198.444 632.235 198.196C632.235 197.94 632.291 197.68 632.403 197.416C632.523 197.144 632.703 196.88 632.943 196.624C633.191 196.36 633.499 196.116 633.867 195.892C634.235 195.668 634.671 195.476 635.175 195.316L635.511 196.24C635.119 196.376 634.775 196.52 634.479 196.672C634.191 196.824 633.951 196.984 633.759 197.152C633.575 197.312 633.435 197.476 633.339 197.644C633.251 197.812 633.207 197.976 633.207 198.136C633.207 198.248 633.255 198.352 633.351 198.448C633.447 198.544 633.587 198.62 633.771 198.676C633.955 198.732 634.171 198.764 634.419 198.772C634.667 198.772 634.939 198.74 635.235 198.676L635.319 199.54C634.743 199.836 634.303 200.116 633.999 200.38C633.703 200.644 633.499 200.884 633.387 201.1C633.275 201.316 633.219 201.512 633.219 201.688C633.219 201.92 633.295 202.104 633.447 202.24C633.599 202.376 633.807 202.476 634.071 202.54C634.335 202.596 634.631 202.624 634.959 202.624C635.231 202.624 635.491 202.604 635.739 202.564C635.987 202.516 636.211 202.46 636.411 202.396C636.611 202.332 636.775 202.272 636.903 202.216Z" fill="black"/>
<path d="M673.252 206.628L672.268 206.748C672.268 206.652 672.256 206.44 672.232 206.112C672.216 205.784 672.188 205.38 672.148 204.9C672.108 204.42 672.056 203.9 671.992 203.34C671.936 202.78 671.868 202.216 671.788 201.648C671.716 201.08 671.632 200.548 671.536 200.052C671.44 199.556 671.332 199.136 671.212 198.792L672.16 198.528C672.312 198.992 672.448 199.532 672.568 200.148C672.688 200.756 672.788 201.388 672.868 202.044C672.956 202.7 673.024 203.336 673.072 203.952C673.128 204.56 673.168 205.1 673.192 205.572C673.224 206.044 673.244 206.396 673.252 206.628ZM676.615 206.628L675.631 206.748C675.631 206.652 675.619 206.44 675.595 206.112C675.579 205.784 675.551 205.38 675.511 204.9C675.471 204.42 675.419 203.9 675.355 203.34C675.299 202.78 675.231 202.216 675.151 201.648C675.079 201.08 674.995 200.548 674.899 200.052C674.803 199.556 674.695 199.136 674.575 198.792L675.523 198.528C675.675 198.992 675.811 199.532 675.931 200.148C676.051 200.756 676.151 201.388 676.231 202.044C676.319 202.7 676.387 203.336 676.435 203.952C676.491 204.56 676.531 205.1 676.555 205.572C676.587 206.044 676.607 206.396 676.615 206.628Z" fill="black"/>
<path d="M20.7 222H702.1" stroke="black" stroke-width="1.1" stroke-linejoin="round"/>
</svg>
