<svg width="720" height="300" viewBox="0 0 720 300" fill="none" xmlns="http://www.w3.org/2000/svg">
<rect width="720" height="300" fill="white"/>
<path d="M37.7 218.1H685" stroke="white" stroke-width="1.1" stroke-linejoin="round"/>
<path d="M75.7 185.8H47.7V218.1H75.7V185.8Z" fill="#D3D3D3"/>
<path d="M115.7 182.7H87.7V218.1H115.7V182.7Z" fill="#D3D3D3"/>
<path d="M155.6 161.1H127.6V218H155.6V161.1Z" fill="#D3D3D3"/>
<path d="M195.6 158.1H167.6V218.1H195.6V158.1Z" fill="#D3D3D3"/>
<path d="M235.5 151.9H207.5V218.1H235.5V151.9Z" fill="#D3D3D3"/>
<path d="M275.5 150.4H247.5V218.1H275.5V150.4Z" fill="#D3D3D3"/>
<path d="M315.4 148.8H287.4V218H315.4V148.8Z" fill="#D3D3D3"/>
<path d="M355.4 144.2H327.4V218.1H355.4V144.2Z" fill="#D3D3D3"/>
<path d="M395.4 135H367.4V218.1H395.4V135Z" fill="#D3D3D3"/>
<path d="M435.3 128.8H407.3V218H435.3V128.8Z" fill="#D3D3D3"/>
<path d="M475.3 119.6H447.3V218.1H475.3V119.6Z" fill="#D3D3D3"/>
<path d="M515.2 118H487.2V218H515.2V118Z" fill="#D3D3D3"/>
<path d="M555.2 110.4H527.2V218.1H555.2V110.4Z" fill="#D3D3D3"/>
<path d="M595.2 88.8H567.2V218.1H595.2V88.8Z" fill="#D3D3D3"/>
<path d="M635.1 81.1H607.1V218.1H635.1V81.1Z" fill="#D3D3D3"/>
<path d="M675.1 78H647.1V218H675.1V78Z" fill="#D3D3D3"/>
<path d="M57.752 183.328L56.768 183.448C56.768 183.352 56.756 183.14 56.732 182.812C56.716 182.484 56.688 182.08 56.648 181.6C56.608 181.12 56.556 180.6 56.492 180.04C56.436 179.48 56.368 178.916 56.288 178.348C56.216 177.78 56.132 177.248 56.036 176.752C55.94 176.256 55.832 175.836 55.712 175.492L56.66 175.228C56.812 175.692 56.948 176.232 57.068 176.848C57.188 177.456 57.288 178.088 57.368 178.744C57.456 179.4 57.524 180.036 57.572 180.652C57.628 181.26 57.668 181.8 57.692 182.272C57.724 182.744 57.744 183.096 57.752 183.328ZM58.244 177.748C57.844 177.748 57.488 177.7 57.176 177.604C56.872 177.508 56.62 177.388 56.42 177.244V176.248C56.644 176.424 56.916 176.556 57.236 176.644C57.556 176.732 57.876 176.776 58.196 176.776C58.396 176.776 58.58 176.764 58.748 176.74C58.924 176.716 59.08 176.656 59.216 176.56C59.352 176.464 59.464 176.316 59.552 176.116C59.648 175.908 59.72 175.624 59.768 175.264L60.584 175.42C60.544 176.028 60.416 176.5 60.2 176.836C59.984 177.172 59.708 177.408 59.372 177.544C59.036 177.68 58.66 177.748 58.244 177.748ZM63.5997 183.328L62.6157 183.448C62.6157 183.352 62.6037 183.14 62.5797 182.812C62.5637 182.484 62.5357 182.08 62.4957 181.6C62.4557 181.12 62.4037 180.6 62.3397 180.04C62.2837 179.48 62.2157 178.916 62.1357 178.348C62.0637 177.78 61.9797 177.248 61.8837 176.752C61.7877 176.256 61.6797 175.836 61.5597 175.492L62.5077 175.228C62.6597 175.692 62.7957 176.232 62.9157 176.848C63.0357 177.456 63.1357 178.088 63.2157 178.744C63.3037 179.4 63.3717 180.036 63.4197 180.652C63.4757 181.26 63.5157 181.8 63.5397 182.272C63.5717 182.744 63.5917 183.096 63.5997 183.328Z" fill="black"/>
<path d="M97.652 180.328L96.668 180.448C96.668 180.352 96.656 180.14 96.632 179.812C96.616 179.484 96.588 179.08 96.548 178.6C96.508 178.12 96.456 177.6 96.392 177.04C96.336 176.48 96.268 175.916 96.188 175.348C96.116 174.78 96.032 174.248 95.936 173.752C95.84 173.256 95.732 172.836 95.612 172.492L96.56 172.228C96.712 172.692 96.848 173.232 96.968 173.848C97.088 174.456 97.188 175.088 97.268 175.744C97.356 176.4 97.424 177.036 97.472 177.652C97.528 178.26 97.568 178.8 97.592 179.272C97.624 179.744 97.644 180.096 97.652 180.328ZM98.144 174.748C97.744 174.748 97.388 174.7 97.076 174.604C96.772 174.508 96.52 174.388 96.32 174.244V173.248C96.544 173.424 96.816 173.556 97.136 173.644C97.456 173.732 97.776 173.776 98.096 173.776C98.296 173.776 98.48 173.764 98.648 173.74C98.824 173.716 98.98 173.656 99.116 173.56C99.252 173.464 99.364 173.316 99.452 173.116C99.548 172.908 99.62 172.624 99.668 172.264L100.484 172.42C100.444 173.028 100.316 173.5 100.1 173.836C99.884 174.172 99.608 174.408 99.272 174.544C98.936 174.68 98.56 174.748 98.144 174.748ZM103.5 180.328L102.516 180.448C102.516 180.352 102.504 180.14 102.48 179.812C102.464 179.484 102.436 179.08 102.396 178.6C102.356 178.12 102.304 177.6 102.24 177.04C102.184 176.48 102.116 175.916 102.036 175.348C101.964 174.78 101.88 174.248 101.784 173.752C101.688 173.256 101.58 172.836 101.46 172.492L102.408 172.228C102.56 172.692 102.696 173.232 102.816 173.848C102.936 174.456 103.036 175.088 103.116 175.744C103.204 176.4 103.272 177.036 103.32 177.652C103.376 178.26 103.416 178.8 103.44 179.272C103.472 179.744 103.492 180.096 103.5 180.328ZM103.74 175.276C103.476 175.276 103.26 175.224 103.092 175.12C102.932 175.016 102.808 174.892 102.72 174.748C102.64 174.596 102.588 174.46 102.564 174.34L102.504 172.612L102.828 173.824C102.868 173.952 102.932 174.056 103.02 174.136C103.116 174.208 103.216 174.26 103.32 174.292C103.432 174.324 103.524 174.34 103.596 174.34C103.732 174.34 103.856 174.292 103.968 174.196C104.088 174.1 104.192 173.924 104.28 173.668C104.368 173.404 104.44 173.028 104.496 172.54L105.336 172.648C105.32 172.792 105.296 172.948 105.264 173.116C105.232 173.276 105.204 173.42 105.18 173.548C105.164 173.676 105.156 173.768 105.156 173.824C105.156 173.968 105.216 174.084 105.336 174.172C105.456 174.252 105.628 174.292 105.852 174.292C106.044 174.292 106.192 174.264 106.296 174.208C106.4 174.144 106.472 174.064 106.512 173.968C106.56 173.872 106.584 173.764 106.584 173.644C106.584 173.46 106.544 173.264 106.464 173.056C106.392 172.84 106.324 172.656 106.26 172.504L107.076 172.204C107.228 172.524 107.332 172.82 107.388 173.092C107.452 173.364 107.484 173.592 107.484 173.776C107.484 174.072 107.416 174.332 107.28 174.556C107.152 174.772 106.964 174.94 106.716 175.06C106.476 175.172 106.188 175.228 105.852 175.228C105.524 175.228 105.252 175.164 105.036 175.036C104.828 174.9 104.696 174.708 104.64 174.46H104.916C104.82 174.724 104.664 174.928 104.448 175.072C104.232 175.208 103.996 175.276 103.74 175.276Z" fill="black"/>
<path d="M137.652 158.728L136.668 158.848C136.668 158.752 136.656 158.54 136.632 158.212C136.616 157.884 136.588 157.48 136.548 157C136.508 156.52 136.456 156 136.392 155.44C136.336 154.88 136.268 154.316 136.188 153.748C136.116 153.18 136.032 152.648 135.936 152.152C135.84 151.656 135.732 151.236 135.612 150.892L136.56 150.628C136.712 151.092 136.848 151.632 136.968 152.248C137.088 152.856 137.188 153.488 137.268 154.144C137.356 154.8 137.424 155.436 137.472 156.052C137.528 156.66 137.568 157.2 137.592 157.672C137.624 158.144 137.644 158.496 137.652 158.728ZM137.892 153.676C137.628 153.676 137.412 153.624 137.244 153.52C137.084 153.416 136.96 153.292 136.872 153.148C136.792 152.996 136.74 152.86 136.716 152.74L136.656 151.012L136.98 152.224C137.02 152.352 137.084 152.456 137.172 152.536C137.268 152.608 137.368 152.66 137.472 152.692C137.584 152.724 137.676 152.74 137.748 152.74C137.884 152.74 138.008 152.692 138.12 152.596C138.24 152.5 138.344 152.324 138.432 152.068C138.52 151.804 138.592 151.428 138.648 150.94L139.488 151.048C139.472 151.192 139.448 151.348 139.416 151.516C139.384 151.676 139.356 151.82 139.332 151.948C139.316 152.076 139.308 152.168 139.308 152.224C139.308 152.368 139.368 152.484 139.488 152.572C139.608 152.652 139.78 152.692 140.004 152.692C140.196 152.692 140.344 152.664 140.448 152.608C140.552 152.544 140.624 152.464 140.664 152.368C140.712 152.272 140.736 152.164 140.736 152.044C140.736 151.86 140.696 151.664 140.616 151.456C140.544 151.24 140.476 151.056 140.412 150.904L141.228 150.604C141.38 150.924 141.484 151.22 141.54 151.492C141.604 151.764 141.636 151.992 141.636 152.176C141.636 152.472 141.568 152.732 141.432 152.956C141.304 153.172 141.116 153.34 140.868 153.46C140.628 153.572 140.34 153.628 140.004 153.628C139.676 153.628 139.404 153.564 139.188 153.436C138.98 153.3 138.848 153.108 138.792 152.86H139.068C138.972 153.124 138.816 153.328 138.6 153.472C138.384 153.608 138.148 153.676 137.892 153.676ZM144.948 158.872L145.176 157.924C145.312 157.356 145.48 156.752 145.68 156.112C145.88 155.464 146.096 154.812 146.328 154.156C146.568 153.492 146.808 152.852 147.048 152.236C147.296 151.62 147.532 151.064 147.756 150.568L148.692 150.952C148.484 151.416 148.264 151.92 148.032 152.464C147.808 153 147.584 153.552 147.36 154.12C147.144 154.688 146.94 155.252 146.748 155.812C146.556 156.364 146.384 156.888 146.232 157.384C146.08 157.88 145.964 158.32 145.884 158.704L144.948 158.872ZM144.948 158.872C144.828 158.424 144.692 157.94 144.54 157.42C144.388 156.892 144.22 156.348 144.036 155.788C143.86 155.22 143.672 154.652 143.472 154.084C143.272 153.508 143.068 152.952 142.86 152.416C142.652 151.872 142.444 151.36 142.236 150.88L143.196 150.508C143.428 151.068 143.66 151.652 143.892 152.26C144.132 152.86 144.36 153.468 144.576 154.084C144.8 154.692 145 155.296 145.176 155.896C145.352 156.488 145.496 157.056 145.608 157.6L145.836 158.704L144.948 158.872Z" fill="black"/>
<path d="M177.652 155.628L176.668 155.748C176.668 155.652 176.656 155.44 176.632 155.112C176.616 154.784 176.588 154.38 176.548 153.9C176.508 153.42 176.456 152.9 176.392 152.34C176.336 151.78 176.268 151.216 176.188 150.648C176.116 150.08 176.032 149.548 175.936 149.052C175.84 148.556 175.732 148.136 175.612 147.792L176.56 147.528C176.712 147.992 176.848 148.532 176.968 149.148C177.088 149.756 177.188 150.388 177.268 151.044C177.356 151.7 177.424 152.336 177.472 152.952C177.528 153.56 177.568 154.1 177.592 154.572C177.624 155.044 177.644 155.396 177.652 155.628ZM177.892 150.576C177.628 150.576 177.412 150.524 177.244 150.42C177.084 150.316 176.96 150.192 176.872 150.048C176.792 149.896 176.74 149.76 176.716 149.64L176.656 147.912L176.98 149.124C177.02 149.252 177.084 149.356 177.172 149.436C177.268 149.508 177.368 149.56 177.472 149.592C177.584 149.624 177.676 149.64 177.748 149.64C177.884 149.64 178.008 149.592 178.12 149.496C178.24 149.4 178.344 149.224 178.432 148.968C178.52 148.704 178.592 148.328 178.648 147.84L179.488 147.948C179.472 148.092 179.448 148.248 179.416 148.416C179.384 148.576 179.356 148.72 179.332 148.848C179.316 148.976 179.308 149.068 179.308 149.124C179.308 149.268 179.368 149.384 179.488 149.472C179.608 149.552 179.78 149.592 180.004 149.592C180.196 149.592 180.344 149.564 180.448 149.508C180.552 149.444 180.624 149.364 180.664 149.268C180.712 149.172 180.736 149.064 180.736 148.944C180.736 148.76 180.696 148.564 180.616 148.356C180.544 148.14 180.476 147.956 180.412 147.804L181.228 147.504C181.38 147.824 181.484 148.12 181.54 148.392C181.604 148.664 181.636 148.892 181.636 149.076C181.636 149.372 181.568 149.632 181.432 149.856C181.304 150.072 181.116 150.24 180.868 150.36C180.628 150.472 180.34 150.528 180.004 150.528C179.676 150.528 179.404 150.464 179.188 150.336C178.98 150.2 178.848 150.008 178.792 149.76H179.068C178.972 150.024 178.816 150.228 178.6 150.372C178.384 150.508 178.148 150.576 177.892 150.576ZM186.232 155.76C186.136 155.376 186.056 154.992 185.992 154.608C185.928 154.216 185.872 153.832 185.824 153.456C185.776 153.08 185.736 152.712 185.704 152.352C185.672 151.992 185.64 151.64 185.608 151.296C185.576 150.944 185.54 150.624 185.5 150.336C185.46 150.048 185.408 149.792 185.344 149.568C185.288 149.336 185.216 149.144 185.128 148.992C185.04 148.832 184.932 148.712 184.804 148.632C184.684 148.552 184.536 148.512 184.36 148.512C184.144 148.512 183.952 148.58 183.784 148.716C183.624 148.844 183.496 149.008 183.4 149.208C183.312 149.408 183.268 149.604 183.268 149.796C183.268 150.044 183.328 150.252 183.448 150.42C183.568 150.588 183.732 150.712 183.94 150.792C184.156 150.872 184.4 150.912 184.672 150.912C184.888 150.912 185.116 150.888 185.356 150.84C185.604 150.792 185.852 150.72 186.1 150.624L186.208 151.476C185.912 151.604 185.62 151.7 185.332 151.764C185.052 151.82 184.78 151.848 184.516 151.848C184.1 151.848 183.728 151.776 183.4 151.632C183.08 151.488 182.824 151.272 182.632 150.984C182.448 150.696 182.356 150.348 182.356 149.94C182.356 149.54 182.444 149.16 182.62 148.8C182.804 148.432 183.056 148.132 183.376 147.9C183.696 147.668 184.068 147.552 184.492 147.552C184.9 147.552 185.228 147.648 185.476 147.84C185.732 148.032 185.928 148.296 186.064 148.632C186.2 148.96 186.3 149.336 186.364 149.76C186.436 150.184 186.492 150.628 186.532 151.092C186.564 151.46 186.596 151.84 186.628 152.232C186.66 152.624 186.696 153.02 186.736 153.42C186.784 153.812 186.836 154.192 186.892 154.56C186.956 154.928 187.036 155.276 187.132 155.604L186.232 155.76Z" fill="black"/>
<path d="M220.24 148.316L220.516 149.156C220.18 149.324 219.836 149.452 219.484 149.54C219.132 149.62 218.7 149.66 218.188 149.66C217.636 149.66 217.164 149.588 216.772 149.444C216.38 149.292 216.08 149.08 215.872 148.808C215.664 148.536 215.56 148.212 215.56 147.836C215.56 147.564 215.644 147.24 215.812 146.864C215.988 146.48 216.34 146.088 216.868 145.688C216.628 145.632 216.408 145.544 216.208 145.424C216.016 145.296 215.86 145.14 215.74 144.956C215.628 144.764 215.572 144.544 215.572 144.296C215.572 144.04 215.628 143.78 215.74 143.516C215.86 143.244 216.04 142.98 216.28 142.724C216.528 142.46 216.836 142.216 217.204 141.992C217.572 141.768 218.008 141.576 218.512 141.416L218.848 142.34C218.456 142.476 218.112 142.62 217.816 142.772C217.528 142.924 217.288 143.084 217.096 143.252C216.912 143.412 216.772 143.576 216.676 143.744C216.588 143.912 216.544 144.076 216.544 144.236C216.544 144.348 216.592 144.452 216.688 144.548C216.784 144.644 216.924 144.72 217.108 144.776C217.292 144.832 217.508 144.864 217.756 144.872C218.004 144.872 218.276 144.84 218.572 144.776L218.656 145.64C218.08 145.936 217.64 146.216 217.336 146.48C217.04 146.744 216.836 146.984 216.724 147.2C216.612 147.416 216.556 147.612 216.556 147.788C216.556 148.02 216.632 148.204 216.784 148.34C216.936 148.476 217.144 148.576 217.408 148.64C217.672 148.696 217.968 148.724 218.296 148.724C218.568 148.724 218.828 148.704 219.076 148.664C219.324 148.616 219.548 148.56 219.748 148.496C219.948 148.432 220.112 148.372 220.24 148.316ZM223.282 149.528L222.298 149.648C222.298 149.552 222.286 149.34 222.262 149.012C222.246 148.684 222.218 148.28 222.178 147.8C222.138 147.32 222.086 146.8 222.022 146.24C221.966 145.68 221.898 145.116 221.818 144.548C221.746 143.98 221.662 143.448 221.566 142.952C221.47 142.456 221.362 142.036 221.242 141.692L222.19 141.428C222.342 141.892 222.478 142.432 222.598 143.048C222.718 143.656 222.818 144.288 222.898 144.944C222.986 145.6 223.054 146.236 223.102 146.852C223.158 147.46 223.198 148 223.222 148.472C223.254 148.944 223.274 149.296 223.282 149.528ZM223.522 144.476C223.258 144.476 223.042 144.424 222.874 144.32C222.714 144.216 222.59 144.092 222.502 143.948C222.422 143.796 222.37 143.66 222.346 143.54L222.286 141.812L222.61 143.024C222.65 143.152 222.714 143.256 222.802 143.336C222.898 143.408 222.998 143.46 223.102 143.492C223.214 143.524 223.306 143.54 223.378 143.54C223.514 143.54 223.638 143.492 223.75 143.396C223.87 143.3 223.974 143.124 224.062 142.868C224.15 142.604 224.222 142.228 224.278 141.74L225.118 141.848C225.102 141.992 225.078 142.148 225.046 142.316C225.014 142.476 224.986 142.62 224.962 142.748C224.946 142.876 224.938 142.968 224.938 143.024C224.938 143.168 224.998 143.284 225.118 143.372C225.238 143.452 225.41 143.492 225.634 143.492C225.826 143.492 225.974 143.464 226.078 143.408C226.182 143.344 226.254 143.264 226.294 143.168C226.342 143.072 226.366 142.964 226.366 142.844C226.366 142.66 226.326 142.464 226.246 142.256C226.174 142.04 226.106 141.856 226.042 141.704L226.858 141.404C227.01 141.724 227.114 142.02 227.17 142.292C227.234 142.564 227.266 142.792 227.266 142.976C227.266 143.272 227.198 143.532 227.062 143.756C226.934 143.972 226.746 144.14 226.498 144.26C226.258 144.372 225.97 144.428 225.634 144.428C225.306 144.428 225.034 144.364 224.818 144.236C224.61 144.1 224.478 143.908 224.422 143.66H224.698C224.602 143.924 224.446 144.128 224.23 144.272C224.014 144.408 223.778 144.476 223.522 144.476Z" fill="black"/>
<path d="M260.24 146.716L260.516 147.556C260.18 147.724 259.836 147.852 259.484 147.94C259.132 148.02 258.7 148.06 258.188 148.06C257.636 148.06 257.164 147.988 256.772 147.844C256.38 147.692 256.08 147.48 255.872 147.208C255.664 146.936 255.56 146.612 255.56 146.236C255.56 145.964 255.644 145.64 255.812 145.264C255.988 144.88 256.34 144.488 256.868 144.088C256.628 144.032 256.408 143.944 256.208 143.824C256.016 143.696 255.86 143.54 255.74 143.356C255.628 143.164 255.572 142.944 255.572 142.696C255.572 142.44 255.628 142.18 255.74 141.916C255.86 141.644 256.04 141.38 256.28 141.124C256.528 140.86 256.836 140.616 257.204 140.392C257.572 140.168 258.008 139.976 258.512 139.816L258.848 140.74C258.456 140.876 258.112 141.02 257.816 141.172C257.528 141.324 257.288 141.484 257.096 141.652C256.912 141.812 256.772 141.976 256.676 142.144C256.588 142.312 256.544 142.476 256.544 142.636C256.544 142.748 256.592 142.852 256.688 142.948C256.784 143.044 256.924 143.12 257.108 143.176C257.292 143.232 257.508 143.264 257.756 143.272C258.004 143.272 258.276 143.24 258.572 143.176L258.656 144.04C258.08 144.336 257.64 144.616 257.336 144.88C257.04 145.144 256.836 145.384 256.724 145.6C256.612 145.816 256.556 146.012 256.556 146.188C256.556 146.42 256.632 146.604 256.784 146.74C256.936 146.876 257.144 146.976 257.408 147.04C257.672 147.096 257.968 147.124 258.296 147.124C258.568 147.124 258.828 147.104 259.076 147.064C259.324 147.016 259.548 146.96 259.748 146.896C259.948 146.832 260.112 146.772 260.24 146.716ZM265.97 146.716L266.246 147.556C265.91 147.724 265.566 147.852 265.214 147.94C264.862 148.02 264.43 148.06 263.918 148.06C263.366 148.06 262.894 147.988 262.502 147.844C262.11 147.692 261.81 147.48 261.602 147.208C261.394 146.936 261.29 146.612 261.29 146.236C261.29 145.964 261.374 145.64 261.542 145.264C261.718 144.88 262.07 144.488 262.598 144.088C262.358 144.032 262.138 143.944 261.938 143.824C261.746 143.696 261.59 143.54 261.47 143.356C261.358 143.164 261.302 142.944 261.302 142.696C261.302 142.44 261.358 142.18 261.47 141.916C261.59 141.644 261.77 141.38 262.01 141.124C262.258 140.86 262.566 140.616 262.934 140.392C263.302 140.168 263.738 139.976 264.242 139.816L264.578 140.74C264.186 140.876 263.842 141.02 263.546 141.172C263.258 141.324 263.018 141.484 262.826 141.652C262.642 141.812 262.502 141.976 262.406 142.144C262.318 142.312 262.274 142.476 262.274 142.636C262.274 142.748 262.322 142.852 262.418 142.948C262.514 143.044 262.654 143.12 262.838 143.176C263.022 143.232 263.238 143.264 263.486 143.272C263.734 143.272 264.006 143.24 264.302 143.176L264.386 144.04C263.81 144.336 263.37 144.616 263.066 144.88C262.77 145.144 262.566 145.384 262.454 145.6C262.342 145.816 262.286 146.012 262.286 146.188C262.286 146.42 262.362 146.604 262.514 146.74C262.666 146.876 262.874 146.976 263.138 147.04C263.402 147.096 263.698 147.124 264.026 147.124C264.298 147.124 264.558 147.104 264.806 147.064C265.054 147.016 265.278 146.96 265.478 146.896C265.678 146.832 265.842 146.772 265.97 146.716Z" fill="black"/>
<path d="M300.14 145.216L300.416 146.056C300.08 146.224 299.736 146.352 299.384 146.44C299.032 146.52 298.6 146.56 298.088 146.56C297.536 146.56 297.064 146.488 296.672 146.344C296.28 146.192 295.98 145.98 295.772 145.708C295.564 145.436 295.46 145.112 295.46 144.736C295.46 144.464 295.544 144.14 295.712 143.764C295.888 143.38 296.24 142.988 296.768 142.588C296.528 142.532 296.308 142.444 296.108 142.324C295.916 142.196 295.76 142.04 295.64 141.856C295.528 141.664 295.472 141.444 295.472 141.196C295.472 140.94 295.528 140.68 295.64 140.416C295.76 140.144 295.94 139.88 296.18 139.624C296.428 139.36 296.736 139.116 297.104 138.892C297.472 138.668 297.908 138.476 298.412 138.316L298.748 139.24C298.356 139.376 298.012 139.52 297.716 139.672C297.428 139.824 297.188 139.984 296.996 140.152C296.812 140.312 296.672 140.476 296.576 140.644C296.488 140.812 296.444 140.976 296.444 141.136C296.444 141.248 296.492 141.352 296.588 141.448C296.684 141.544 296.824 141.62 297.008 141.676C297.192 141.732 297.408 141.764 297.656 141.772C297.904 141.772 298.176 141.74 298.472 141.676L298.556 142.54C297.98 142.836 297.54 143.116 297.236 143.38C296.94 143.644 296.736 143.884 296.624 144.1C296.512 144.316 296.456 144.512 296.456 144.688C296.456 144.92 296.532 145.104 296.684 145.24C296.836 145.376 297.044 145.476 297.308 145.54C297.572 145.596 297.868 145.624 298.196 145.624C298.468 145.624 298.728 145.604 298.976 145.564C299.224 145.516 299.448 145.46 299.648 145.396C299.848 145.332 300.012 145.272 300.14 145.216ZM303.722 146.56C303.098 146.56 302.61 146.436 302.258 146.188C301.914 145.932 301.67 145.588 301.526 145.156C301.382 144.724 301.31 144.24 301.31 143.704C301.31 143.248 301.366 142.816 301.478 142.408C301.598 142 301.762 141.64 301.97 141.328C302.186 141.016 302.442 140.772 302.738 140.596C303.034 140.412 303.362 140.32 303.722 140.32C304.082 140.32 304.41 140.412 304.706 140.596C305.002 140.772 305.254 141.016 305.462 141.328C305.678 141.64 305.842 142 305.954 142.408C306.074 142.816 306.134 143.248 306.134 143.704C306.134 144.24 306.062 144.724 305.918 145.156C305.782 145.588 305.538 145.932 305.186 146.188C304.834 146.436 304.346 146.56 303.722 146.56ZM303.722 145.588C304.034 145.588 304.286 145.54 304.478 145.444C304.67 145.34 304.814 145.204 304.91 145.036C305.014 144.868 305.082 144.684 305.114 144.484C305.154 144.276 305.174 144.072 305.174 143.872C305.174 143.544 305.142 143.228 305.078 142.924C305.022 142.62 304.934 142.348 304.814 142.108C304.694 141.86 304.542 141.664 304.358 141.52C304.174 141.376 303.962 141.304 303.722 141.304C303.482 141.304 303.27 141.376 303.086 141.52C302.902 141.664 302.75 141.86 302.63 142.108C302.51 142.348 302.418 142.62 302.354 142.924C302.298 143.228 302.27 143.544 302.27 143.872C302.27 144.144 302.302 144.412 302.366 144.676C302.438 144.94 302.578 145.16 302.786 145.336C302.994 145.504 303.306 145.588 303.722 145.588Z" fill="black"/>
<path d="M340.14 140.616L340.416 141.456C340.08 141.624 339.736 141.752 339.384 141.84C339.032 141.92 338.6 141.96 338.088 141.96C337.536 141.96 337.064 141.888 336.672 141.744C336.28 141.592 335.98 141.38 335.772 141.108C335.564 140.836 335.46 140.512 335.46 140.136C335.46 139.864 335.544 139.54 335.712 139.164C335.888 138.78 336.24 138.388 336.768 137.988C336.528 137.932 336.308 137.844 336.108 137.724C335.916 137.596 335.76 137.44 335.64 137.256C335.528 137.064 335.472 136.844 335.472 136.596C335.472 136.34 335.528 136.08 335.64 135.816C335.76 135.544 335.94 135.28 336.18 135.024C336.428 134.76 336.736 134.516 337.104 134.292C337.472 134.068 337.908 133.876 338.412 133.716L338.748 134.64C338.356 134.776 338.012 134.92 337.716 135.072C337.428 135.224 337.188 135.384 336.996 135.552C336.812 135.712 336.672 135.876 336.576 136.044C336.488 136.212 336.444 136.376 336.444 136.536C336.444 136.648 336.492 136.752 336.588 136.848C336.684 136.944 336.824 137.02 337.008 137.076C337.192 137.132 337.408 137.164 337.656 137.172C337.904 137.172 338.176 137.14 338.472 137.076L338.556 137.94C337.98 138.236 337.54 138.516 337.236 138.78C336.94 139.044 336.736 139.284 336.624 139.5C336.512 139.716 336.456 139.912 336.456 140.088C336.456 140.32 336.532 140.504 336.684 140.64C336.836 140.776 337.044 140.876 337.308 140.94C337.572 140.996 337.868 141.024 338.196 141.024C338.468 141.024 338.728 141.004 338.976 140.964C339.224 140.916 339.448 140.86 339.648 140.796C339.848 140.732 340.012 140.672 340.14 140.616ZM341.706 142.02L340.77 141.636C340.978 141.172 341.194 140.676 341.418 140.148C341.65 139.612 341.874 139.064 342.09 138.504C342.314 137.944 342.522 137.392 342.714 136.848C342.906 136.296 343.078 135.776 343.23 135.288C343.382 134.8 343.498 134.364 343.578 133.98L344.514 133.8L344.322 134.568C344.178 135.136 344.002 135.748 343.794 136.404C343.594 137.06 343.374 137.724 343.134 138.396C342.902 139.068 342.662 139.716 342.414 140.34C342.166 140.956 341.93 141.516 341.706 142.02ZM346.266 142.02C346.074 141.556 345.882 141.076 345.69 140.58C345.506 140.084 345.322 139.58 345.138 139.068C344.962 138.556 344.79 138.048 344.622 137.544C344.462 137.04 344.31 136.552 344.166 136.08C344.03 135.6 343.91 135.144 343.806 134.712L343.626 133.98L344.514 133.8C344.618 134.248 344.738 134.728 344.874 135.24C345.018 135.752 345.178 136.28 345.354 136.824C345.53 137.368 345.714 137.916 345.906 138.468C346.106 139.02 346.314 139.564 346.53 140.1C346.754 140.636 346.978 141.152 347.202 141.648L346.266 142.02Z" fill="black"/>
<path d="M377.992 132.76C377.368 132.76 376.88 132.636 376.528 132.388C376.184 132.132 375.94 131.788 375.796 131.356C375.652 130.924 375.58 130.44 375.58 129.904C375.58 129.448 375.636 129.016 375.748 128.608C375.868 128.2 376.032 127.84 376.24 127.528C376.456 127.216 376.712 126.972 377.008 126.796C377.304 126.612 377.632 126.52 377.992 126.52C378.352 126.52 378.68 126.612 378.976 126.796C379.272 126.972 379.524 127.216 379.732 127.528C379.948 127.84 380.112 128.2 380.224 128.608C380.344 129.016 380.404 129.448 380.404 129.904C380.404 130.44 380.332 130.924 380.188 131.356C380.052 131.788 379.808 132.132 379.456 132.388C379.104 132.636 378.616 132.76 377.992 132.76ZM377.992 131.788C378.304 131.788 378.556 131.74 378.748 131.644C378.94 131.54 379.084 131.404 379.18 131.236C379.284 131.068 379.352 130.884 379.384 130.684C379.424 130.476 379.444 130.272 379.444 130.072C379.444 129.744 379.412 129.428 379.348 129.124C379.292 128.82 379.204 128.548 379.084 128.308C378.964 128.06 378.812 127.864 378.628 127.72C378.444 127.576 378.232 127.504 377.992 127.504C377.752 127.504 377.54 127.576 377.356 127.72C377.172 127.864 377.02 128.06 376.9 128.308C376.78 128.548 376.688 128.82 376.624 129.124C376.568 129.428 376.54 129.744 376.54 130.072C376.54 130.344 376.572 130.612 376.636 130.876C376.708 131.14 376.848 131.36 377.056 131.536C377.264 131.704 377.576 131.788 377.992 131.788ZM386.527 131.416L386.803 132.256C386.467 132.424 386.123 132.552 385.771 132.64C385.419 132.72 384.987 132.76 384.475 132.76C383.923 132.76 383.451 132.688 383.059 132.544C382.667 132.392 382.367 132.18 382.159 131.908C381.951 131.636 381.847 131.312 381.847 130.936C381.847 130.664 381.931 130.34 382.099 129.964C382.275 129.58 382.627 129.188 383.155 128.788C382.915 128.732 382.695 128.644 382.495 128.524C382.303 128.396 382.147 128.24 382.027 128.056C381.915 127.864 381.859 127.644 381.859 127.396C381.859 127.14 381.915 126.88 382.027 126.616C382.147 126.344 382.327 126.08 382.567 125.824C382.815 125.56 383.123 125.316 383.491 125.092C383.859 124.868 384.295 124.676 384.799 124.516L385.135 125.44C384.743 125.576 384.399 125.72 384.103 125.872C383.815 126.024 383.575 126.184 383.383 126.352C383.199 126.512 383.059 126.676 382.963 126.844C382.875 127.012 382.831 127.176 382.831 127.336C382.831 127.448 382.879 127.552 382.975 127.648C383.071 127.744 383.211 127.82 383.395 127.876C383.579 127.932 383.795 127.964 384.043 127.972C384.291 127.972 384.563 127.94 384.859 127.876L384.943 128.74C384.367 129.036 383.927 129.316 383.623 129.58C383.327 129.844 383.123 130.084 383.011 130.3C382.899 130.516 382.843 130.712 382.843 130.888C382.843 131.12 382.919 131.304 383.071 131.44C383.223 131.576 383.431 131.676 383.695 131.74C383.959 131.796 384.255 131.824 384.583 131.824C384.855 131.824 385.115 131.804 385.363 131.764C385.611 131.716 385.835 131.66 386.035 131.596C386.235 131.532 386.399 131.472 386.527 131.416Z" fill="black"/>
<path d="M417.892 126.56C417.268 126.56 416.78 126.436 416.428 126.188C416.084 125.932 415.84 125.588 415.696 125.156C415.552 124.724 415.48 124.24 415.48 123.704C415.48 123.248 415.536 122.816 415.648 122.408C415.768 122 415.932 121.64 416.14 121.328C416.356 121.016 416.612 120.772 416.908 120.596C417.204 120.412 417.532 120.32 417.892 120.32C418.252 120.32 418.58 120.412 418.876 120.596C419.172 120.772 419.424 121.016 419.632 121.328C419.848 121.64 420.012 122 420.124 122.408C420.244 122.816 420.304 123.248 420.304 123.704C420.304 124.24 420.232 124.724 420.088 125.156C419.952 125.588 419.708 125.932 419.356 126.188C419.004 126.436 418.516 126.56 417.892 126.56ZM417.892 125.588C418.204 125.588 418.456 125.54 418.648 125.444C418.84 125.34 418.984 125.204 419.08 125.036C419.184 124.868 419.252 124.684 419.284 124.484C419.324 124.276 419.344 124.072 419.344 123.872C419.344 123.544 419.312 123.228 419.248 122.924C419.192 122.62 419.104 122.348 418.984 122.108C418.864 121.86 418.712 121.664 418.528 121.52C418.344 121.376 418.132 121.304 417.892 121.304C417.652 121.304 417.44 121.376 417.256 121.52C417.072 121.664 416.92 121.86 416.8 122.108C416.68 122.348 416.588 122.62 416.524 122.924C416.468 123.228 416.44 123.544 416.44 123.872C416.44 124.144 416.472 124.412 416.536 124.676C416.608 124.94 416.748 125.16 416.956 125.336C417.164 125.504 417.476 125.588 417.892 125.588ZM422.263 126.62L421.327 126.236C421.535 125.772 421.751 125.276 421.975 124.748C422.207 124.212 422.431 123.664 422.647 123.104C422.871 122.544 423.079 121.992 423.271 121.448C423.463 120.896 423.635 120.376 423.787 119.888C423.939 119.4 424.055 118.964 424.135 118.58L425.071 118.4L424.879 119.168C424.735 119.736 424.559 120.348 424.351 121.004C424.151 121.66 423.931 122.324 423.691 122.996C423.459 123.668 423.219 124.316 422.971 124.94C422.723 125.556 422.487 126.116 422.263 126.62ZM426.823 126.62C426.631 126.156 426.439 125.676 426.247 125.18C426.063 124.684 425.879 124.18 425.695 123.668C425.519 123.156 425.347 122.648 425.179 122.144C425.019 121.64 424.867 121.152 424.723 120.68C424.587 120.2 424.467 119.744 424.363 119.312L424.183 118.58L425.071 118.4C425.175 118.848 425.295 119.328 425.431 119.84C425.575 120.352 425.735 120.88 425.911 121.424C426.087 121.968 426.271 122.516 426.463 123.068C426.663 123.62 426.871 124.164 427.087 124.7C427.311 125.236 427.535 125.752 427.759 126.248L426.823 126.62Z" fill="black"/>
<path d="M459.092 117.36C459.06 117.128 459 116.78 458.912 116.316C458.832 115.844 458.744 115.288 458.648 114.648C458.56 114 458.484 113.3 458.42 112.548C458.356 111.788 458.324 111.004 458.324 110.196L458.708 109.62L459.188 109.296C459.188 109.752 459.208 110.28 459.248 110.88C459.296 111.48 459.352 112.1 459.416 112.74C459.488 113.38 459.56 114 459.632 114.6C459.712 115.2 459.784 115.732 459.848 116.196C459.92 116.66 459.98 117.008 460.028 117.24L459.092 117.36ZM459.116 110.256C458.804 110.328 458.46 110.384 458.084 110.424C457.716 110.456 457.34 110.468 456.956 110.46C456.572 110.444 456.204 110.404 455.852 110.34C455.508 110.268 455.204 110.164 454.94 110.028L455.12 109.116C455.416 109.236 455.756 109.324 456.14 109.38C456.532 109.436 456.924 109.464 457.316 109.464C457.716 109.464 458.08 109.448 458.408 109.416C458.744 109.384 459.004 109.344 459.188 109.296L459.116 110.256ZM466.087 116.016L466.363 116.856C466.027 117.024 465.683 117.152 465.331 117.24C464.979 117.32 464.547 117.36 464.035 117.36C463.483 117.36 463.011 117.288 462.619 117.144C462.227 116.992 461.927 116.78 461.719 116.508C461.511 116.236 461.407 115.912 461.407 115.536C461.407 115.264 461.491 114.94 461.659 114.564C461.835 114.18 462.187 113.788 462.715 113.388C462.475 113.332 462.255 113.244 462.055 113.124C461.863 112.996 461.707 112.84 461.587 112.656C461.475 112.464 461.419 112.244 461.419 111.996C461.419 111.74 461.475 111.48 461.587 111.216C461.707 110.944 461.887 110.68 462.127 110.424C462.375 110.16 462.683 109.916 463.051 109.692C463.419 109.468 463.855 109.276 464.359 109.116L464.695 110.04C464.303 110.176 463.959 110.32 463.663 110.472C463.375 110.624 463.135 110.784 462.943 110.952C462.759 111.112 462.619 111.276 462.523 111.444C462.435 111.612 462.391 111.776 462.391 111.936C462.391 112.048 462.439 112.152 462.535 112.248C462.631 112.344 462.771 112.42 462.955 112.476C463.139 112.532 463.355 112.564 463.603 112.572C463.851 112.572 464.123 112.54 464.419 112.476L464.503 113.34C463.927 113.636 463.487 113.916 463.183 114.18C462.887 114.444 462.683 114.684 462.571 114.9C462.459 115.116 462.403 115.312 462.403 115.488C462.403 115.72 462.479 115.904 462.631 116.04C462.783 116.176 462.991 116.276 463.255 116.34C463.519 116.396 463.815 116.424 464.143 116.424C464.415 116.424 464.675 116.404 464.923 116.364C465.171 116.316 465.395 116.26 465.595 116.196C465.795 116.132 465.959 116.072 466.087 116.016Z" fill="black"/>
<path d="M498.992 115.76C498.96 115.528 498.9 115.18 498.812 114.716C498.732 114.244 498.644 113.688 498.548 113.048C498.46 112.4 498.384 111.7 498.32 110.948C498.256 110.188 498.224 109.404 498.224 108.596L498.608 108.02L499.088 107.696C499.088 108.152 499.108 108.68 499.148 109.28C499.196 109.88 499.252 110.5 499.316 111.14C499.388 111.78 499.46 112.4 499.532 113C499.612 113.6 499.684 114.132 499.748 114.596C499.82 115.06 499.88 115.408 499.928 115.64L498.992 115.76ZM499.016 108.656C498.704 108.728 498.36 108.784 497.984 108.824C497.616 108.856 497.24 108.868 496.856 108.86C496.472 108.844 496.104 108.804 495.752 108.74C495.408 108.668 495.104 108.564 494.84 108.428L495.02 107.516C495.316 107.636 495.656 107.724 496.04 107.78C496.432 107.836 496.824 107.864 497.216 107.864C497.616 107.864 497.98 107.848 498.308 107.816C498.644 107.784 498.904 107.744 499.088 107.696L499.016 108.656ZM503.839 115.76C503.215 115.76 502.727 115.636 502.375 115.388C502.031 115.132 501.787 114.788 501.643 114.356C501.499 113.924 501.427 113.44 501.427 112.904C501.427 112.448 501.483 112.016 501.595 111.608C501.715 111.2 501.879 110.84 502.087 110.528C502.303 110.216 502.559 109.972 502.855 109.796C503.151 109.612 503.479 109.52 503.839 109.52C504.199 109.52 504.527 109.612 504.823 109.796C505.119 109.972 505.371 110.216 505.579 110.528C505.795 110.84 505.959 111.2 506.071 111.608C506.191 112.016 506.251 112.448 506.251 112.904C506.251 113.44 506.179 113.924 506.035 114.356C505.899 114.788 505.655 115.132 505.303 115.388C504.951 115.636 504.463 115.76 503.839 115.76ZM503.839 114.788C504.151 114.788 504.403 114.74 504.595 114.644C504.787 114.54 504.931 114.404 505.027 114.236C505.131 114.068 505.199 113.884 505.231 113.684C505.271 113.476 505.291 113.272 505.291 113.072C505.291 112.744 505.259 112.428 505.195 112.124C505.139 111.82 505.051 111.548 504.931 111.308C504.811 111.06 504.659 110.864 504.475 110.72C504.291 110.576 504.079 110.504 503.839 110.504C503.599 110.504 503.387 110.576 503.203 110.72C503.019 110.864 502.867 111.06 502.747 111.308C502.627 111.548 502.535 111.82 502.471 112.124C502.415 112.428 502.387 112.744 502.387 113.072C502.387 113.344 502.419 113.612 502.483 113.876C502.555 114.14 502.695 114.36 502.903 114.536C503.111 114.704 503.423 114.788 503.839 114.788Z" fill="black"/>
<path d="M537.552 108.072L537.78 107.124C537.916 106.556 538.084 105.952 538.284 105.312C538.484 104.664 538.7 104.012 538.932 103.356C539.172 102.692 539.412 102.052 539.652 101.436C539.9 100.82 540.136 100.264 540.36 99.768L541.296 100.152C541.088 100.616 540.868 101.12 540.636 101.664C540.412 102.2 540.188 102.752 539.964 103.32C539.748 103.888 539.544 104.452 539.352 105.012C539.16 105.564 538.988 106.088 538.836 106.584C538.684 107.08 538.568 107.52 538.488 107.904L537.552 108.072ZM537.552 108.072C537.432 107.624 537.296 107.14 537.144 106.62C536.992 106.092 536.824 105.548 536.64 104.988C536.464 104.42 536.276 103.852 536.076 103.284C535.876 102.708 535.672 102.152 535.464 101.616C535.256 101.072 535.048 100.56 534.84 100.08L535.8 99.708C536.032 100.268 536.264 100.852 536.496 101.46C536.736 102.06 536.964 102.668 537.18 103.284C537.404 103.892 537.604 104.496 537.78 105.096C537.956 105.688 538.1 106.256 538.212 106.8L538.44 107.904L537.552 108.072ZM543.409 105.504C543.273 105.352 543.149 105.22 543.037 105.108C542.925 104.996 542.813 104.888 542.701 104.784C542.589 104.68 542.461 104.568 542.317 104.448L543.181 103.536C543.397 103.696 543.601 103.872 543.793 104.064C543.985 104.256 544.153 104.444 544.297 104.628L543.409 105.504Z" fill="black"/>
<path d="M575.676 86.62L574.74 86.236C574.948 85.772 575.164 85.276 575.388 84.748C575.62 84.212 575.844 83.664 576.06 83.104C576.284 82.544 576.492 81.992 576.684 81.448C576.876 80.896 577.048 80.376 577.2 79.888C577.352 79.4 577.468 78.964 577.548 78.58L578.484 78.4L578.292 79.168C578.148 79.736 577.972 80.348 577.764 81.004C577.564 81.66 577.344 82.324 577.104 82.996C576.872 83.668 576.632 84.316 576.384 84.94C576.136 85.556 575.9 86.116 575.676 86.62ZM580.236 86.62C580.044 86.156 579.852 85.676 579.66 85.18C579.476 84.684 579.292 84.18 579.108 83.668C578.932 83.156 578.76 82.648 578.592 82.144C578.432 81.64 578.28 81.152 578.136 80.68C578 80.2 577.88 79.744 577.776 79.312L577.596 78.58L578.484 78.4C578.588 78.848 578.708 79.328 578.844 79.84C578.988 80.352 579.148 80.88 579.324 81.424C579.5 81.968 579.684 82.516 579.876 83.068C580.076 83.62 580.284 84.164 580.5 84.7C580.724 85.236 580.948 85.752 581.172 86.248L580.236 86.62ZM586.754 85.216L587.03 86.056C586.694 86.224 586.35 86.352 585.998 86.44C585.646 86.52 585.214 86.56 584.702 86.56C584.15 86.56 583.678 86.488 583.286 86.344C582.894 86.192 582.594 85.98 582.386 85.708C582.178 85.436 582.074 85.112 582.074 84.736C582.074 84.464 582.158 84.14 582.326 83.764C582.502 83.38 582.854 82.988 583.382 82.588C583.142 82.532 582.922 82.444 582.722 82.324C582.53 82.196 582.374 82.04 582.254 81.856C582.142 81.664 582.086 81.444 582.086 81.196C582.086 80.94 582.142 80.68 582.254 80.416C582.374 80.144 582.554 79.88 582.794 79.624C583.042 79.36 583.35 79.116 583.718 78.892C584.086 78.668 584.522 78.476 585.026 78.316L585.362 79.24C584.97 79.376 584.626 79.52 584.33 79.672C584.042 79.824 583.802 79.984 583.61 80.152C583.426 80.312 583.286 80.476 583.19 80.644C583.102 80.812 583.058 80.976 583.058 81.136C583.058 81.248 583.106 81.352 583.202 81.448C583.298 81.544 583.438 81.62 583.622 81.676C583.806 81.732 584.022 81.764 584.27 81.772C584.518 81.772 584.79 81.74 585.086 81.676L585.17 82.54C584.594 82.836 584.154 83.116 583.85 83.38C583.554 83.644 583.35 83.884 583.238 84.1C583.126 84.316 583.07 84.512 583.07 84.688C583.07 84.92 583.146 85.104 583.298 85.24C583.45 85.376 583.658 85.476 583.922 85.54C584.186 85.596 584.482 85.624 584.81 85.624C585.082 85.624 585.342 85.604 585.59 85.564C585.838 85.516 586.062 85.46 586.262 85.396C586.462 85.332 586.626 85.272 586.754 85.216Z" fill="black"/>
<path d="M615.976 79.32L615.04 78.936C615.248 78.472 615.464 77.976 615.688 77.448C615.92 76.912 616.144 76.364 616.36 75.804C616.584 75.244 616.792 74.692 616.984 74.148C617.176 73.596 617.348 73.076 617.5 72.588C617.652 72.1 617.768 71.664 617.848 71.28L618.784 71.1L618.592 71.868C618.448 72.436 618.272 73.048 618.064 73.704C617.864 74.36 617.644 75.024 617.404 75.696C617.172 76.368 616.932 77.016 616.684 77.64C616.436 78.256 616.2 78.816 615.976 79.32ZM620.536 79.32C620.344 78.856 620.152 78.376 619.96 77.88C619.776 77.384 619.592 76.88 619.408 76.368C619.232 75.856 619.06 75.348 618.892 74.844C618.732 74.34 618.58 73.852 618.436 73.38C618.3 72.9 618.18 72.444 618.076 72.012L617.896 71.28L618.784 71.1C618.888 71.548 619.008 72.028 619.144 72.54C619.288 73.052 619.448 73.58 619.624 74.124C619.8 74.668 619.984 75.216 620.176 75.768C620.376 76.32 620.584 76.864 620.8 77.4C621.024 77.936 621.248 78.452 621.472 78.948L620.536 79.32ZM625.95 79.26C625.854 78.876 625.774 78.492 625.71 78.108C625.646 77.716 625.59 77.332 625.542 76.956C625.494 76.58 625.454 76.212 625.422 75.852C625.39 75.492 625.358 75.14 625.326 74.796C625.294 74.444 625.258 74.124 625.218 73.836C625.178 73.548 625.126 73.292 625.062 73.068C625.006 72.836 624.934 72.644 624.846 72.492C624.758 72.332 624.65 72.212 624.522 72.132C624.402 72.052 624.254 72.012 624.078 72.012C623.862 72.012 623.67 72.08 623.502 72.216C623.342 72.344 623.214 72.508 623.118 72.708C623.03 72.908 622.986 73.104 622.986 73.296C622.986 73.544 623.046 73.752 623.166 73.92C623.286 74.088 623.45 74.212 623.658 74.292C623.874 74.372 624.118 74.412 624.39 74.412C624.606 74.412 624.834 74.388 625.074 74.34C625.322 74.292 625.57 74.22 625.818 74.124L625.926 74.976C625.63 75.104 625.338 75.2 625.05 75.264C624.77 75.32 624.498 75.348 624.234 75.348C623.818 75.348 623.446 75.276 623.118 75.132C622.798 74.988 622.542 74.772 622.35 74.484C622.166 74.196 622.074 73.848 622.074 73.44C622.074 73.04 622.162 72.66 622.338 72.3C622.522 71.932 622.774 71.632 623.094 71.4C623.414 71.168 623.786 71.052 624.21 71.052C624.618 71.052 624.946 71.148 625.194 71.34C625.45 71.532 625.646 71.796 625.782 72.132C625.918 72.46 626.018 72.836 626.082 73.26C626.154 73.684 626.21 74.128 626.25 74.592C626.282 74.96 626.314 75.34 626.346 75.732C626.378 76.124 626.414 76.52 626.454 76.92C626.502 77.312 626.554 77.692 626.61 78.06C626.674 78.428 626.754 78.776 626.85 79.104L625.95 79.26Z" fill="black"/>
<path d="M659.036 76.26C658.94 75.876 658.86 75.492 658.796 75.108C658.732 74.716 658.676 74.332 658.628 73.956C658.58 73.58 658.54 73.212 658.508 72.852C658.476 72.492 658.444 72.14 658.412 71.796C658.38 71.444 658.344 71.124 658.304 70.836C658.264 70.548 658.212 70.292 658.148 70.068C658.092 69.836 658.02 69.644 657.932 69.492C657.844 69.332 657.736 69.212 657.608 69.132C657.488 69.052 657.34 69.012 657.164 69.012C656.948 69.012 656.756 69.08 656.588 69.216C656.428 69.344 656.3 69.508 656.204 69.708C656.116 69.908 656.072 70.104 656.072 70.296C656.072 70.544 656.132 70.752 656.252 70.92C656.372 71.088 656.536 71.212 656.744 71.292C656.96 71.372 657.204 71.412 657.476 71.412C657.692 71.412 657.92 71.388 658.16 71.34C658.408 71.292 658.656 71.22 658.904 71.124L659.012 71.976C658.716 72.104 658.424 72.2 658.136 72.264C657.856 72.32 657.584 72.348 657.32 72.348C656.904 72.348 656.532 72.276 656.204 72.132C655.884 71.988 655.628 71.772 655.436 71.484C655.252 71.196 655.16 70.848 655.16 70.44C655.16 70.04 655.248 69.66 655.424 69.3C655.608 68.932 655.86 68.632 656.18 68.4C656.5 68.168 656.872 68.052 657.296 68.052C657.704 68.052 658.032 68.148 658.28 68.34C658.536 68.532 658.732 68.796 658.868 69.132C659.004 69.46 659.104 69.836 659.168 70.26C659.24 70.684 659.296 71.128 659.336 71.592C659.368 71.96 659.4 72.34 659.432 72.732C659.464 73.124 659.5 73.52 659.54 73.92C659.588 74.312 659.64 74.692 659.696 75.06C659.76 75.428 659.84 75.776 659.936 76.104L659.036 76.26ZM663.347 76.128L662.363 76.248C662.363 76.152 662.351 75.94 662.327 75.612C662.311 75.284 662.283 74.88 662.243 74.4C662.203 73.92 662.151 73.4 662.087 72.84C662.031 72.28 661.963 71.716 661.883 71.148C661.811 70.58 661.727 70.048 661.631 69.552C661.535 69.056 661.427 68.636 661.307 68.292L662.255 68.028C662.407 68.492 662.543 69.032 662.663 69.648C662.783 70.256 662.883 70.888 662.963 71.544C663.051 72.2 663.119 72.836 663.167 73.452C663.223 74.06 663.263 74.6 663.287 75.072C663.319 75.544 663.339 75.896 663.347 76.128Z" fill="black"/>
<path d="M37.7 218.1H685" stroke="black" stroke-width="1.1" stroke-linejoin="round"/>
</svg>
